<svg width="120" height="24" viewBox="0 0 120 24" fill="none" xmlns="http://www.w3.org/2000/svg">
<path d="M15.0508 22.1211C17.0169 22.1211 18.8919 21.9909 20.6758 21.7305C22.4596 21.4701 24.2565 21.125 26.0664 20.6953V12.5312H16.1055C15.9492 12.5312 15.7865 12.5312 15.6172 12.5312C15.4609 12.5182 15.3112 12.4922 15.168 12.4531C15.0378 12.401 14.9271 12.3294 14.8359 12.2383C14.7578 12.1471 14.7188 12.0169 14.7188 11.8477C14.7188 11.6784 14.7578 11.5482 14.8359 11.457C14.9271 11.3659 15.0378 11.3008 15.168 11.2617C15.2982 11.2096 15.4414 11.1836 15.5977 11.1836C15.7669 11.1706 15.9362 11.1641 16.1055 11.1641H26.0664C26.6133 11.1641 26.9844 11.2682 27.1797 11.4766C27.375 11.6849 27.4727 12.0365 27.4727 12.5312V20.6953C27.4727 21.099 27.3229 21.4115 27.0234 21.6328C26.724 21.8411 26.4049 21.9779 26.0664 22.043C24.1393 22.4206 22.2708 22.7396 20.4609 23C18.651 23.2734 16.8477 23.4102 15.0508 23.4102C12.6289 23.4102 10.5 23.2018 8.66406 22.7852C6.84115 22.3685 5.31771 21.7109 4.09375 20.8125C2.86979 19.901 1.94531 18.7357 1.32031 17.3164C0.708333 15.8841 0.402344 14.1523 0.402344 12.1211C0.402344 10.0898 0.708333 8.36458 1.32031 6.94531C1.94531 5.51302 2.86979 4.34766 4.09375 3.44922C5.31771 2.53776 6.84115 1.8737 8.66406 1.45703C10.5 1.04036 12.6289 0.832031 15.0508 0.832031C16.7435 0.832031 18.3841 0.988281 19.9727 1.30078C21.5612 1.60026 23.1758 2.08854 24.8164 2.76562C25.0247 2.85677 25.1745 2.97396 25.2656 3.11719C25.3568 3.2474 25.4023 3.3776 25.4023 3.50781C25.4023 3.66406 25.3438 3.80078 25.2266 3.91797C25.1094 4.03516 24.9596 4.09375 24.7773 4.09375C24.7253 4.09375 24.6016 4.0612 24.4062 3.99609C22.9089 3.37109 21.3594 2.90234 19.7578 2.58984C18.1562 2.27734 16.5872 2.12109 15.0508 2.12109C12.7331 2.12109 10.7539 2.31641 9.11328 2.70703C7.47266 3.08464 6.125 3.68359 5.07031 4.50391C4.02865 5.3112 3.26693 6.34635 2.78516 7.60938C2.30339 8.85938 2.0625 10.3633 2.0625 12.1211C2.0625 13.8789 2.30339 15.3893 2.78516 16.6523C3.26693 17.9023 4.02865 18.9375 5.07031 19.7578C6.125 20.5651 7.47266 21.1641 9.11328 21.5547C10.7539 21.9323 12.7331 22.1211 15.0508 22.1211ZM34.6406 21.7695C34.6406 21.9388 34.6341 22.1016 34.6211 22.2578C34.6081 22.401 34.5755 22.5312 34.5234 22.6484C34.4844 22.7526 34.4128 22.8372 34.3086 22.9023C34.2044 22.9674 34.0547 23 33.8594 23C33.4948 23 33.2734 22.8893 33.1953 22.668C33.1172 22.4466 33.0781 22.1471 33.0781 21.7695V9.23047C33.0781 8.90495 33.1237 8.625 33.2148 8.39062C33.306 8.15625 33.5339 8.03906 33.8984 8.03906C34.224 8.03906 34.4258 8.15625 34.5039 8.39062C34.5951 8.625 34.6406 8.89193 34.6406 9.19141V21.7695ZM32.8242 3.625C32.8242 3.32552 32.9219 3.07812 33.1172 2.88281C33.3125 2.67448 33.5599 2.57031 33.8594 2.57031C34.1589 2.57031 34.4128 2.67448 34.6211 2.88281C34.8294 3.07812 34.9336 3.32552 34.9336 3.625C34.9336 3.92448 34.8294 4.16536 34.6211 4.34766C34.4128 4.52995 34.1589 4.62109 33.8594 4.62109C33.5599 4.62109 33.3125 4.52995 33.1172 4.34766C32.9219 4.16536 32.8242 3.92448 32.8242 3.625ZM49.6992 8.33203C49.8945 8.33203 50.0378 8.38411 50.1289 8.48828C50.2331 8.57943 50.2852 8.68359 50.2852 8.80078C50.2852 8.91797 50.2331 9.02865 50.1289 9.13281C50.0378 9.22396 49.8945 9.26953 49.6992 9.26953H43.2148V17.5508C43.2148 18.5013 43.3125 19.2695 43.5078 19.8555C43.7031 20.4414 43.9635 20.8971 44.2891 21.2227C44.6276 21.5482 45.0182 21.7695 45.4609 21.8867C45.9167 21.9909 46.3984 22.043 46.9062 22.043C47.5312 22.043 48.1432 21.9323 48.7422 21.7109C49.3411 21.4896 50.0312 21.1706 50.8125 20.7539C50.9688 20.6758 51.1185 20.6367 51.2617 20.6367C51.431 20.6367 51.5612 20.6888 51.6523 20.793C51.7565 20.8841 51.8086 21.0013 51.8086 21.1445C51.8086 21.4049 51.6654 21.6133 51.3789 21.7695C50.832 22.069 50.3438 22.3099 49.9141 22.4922C49.4974 22.6745 49.1068 22.8177 48.7422 22.9219C48.3906 23.026 48.0456 23.0977 47.707 23.1367C47.3685 23.1758 47.0104 23.1953 46.6328 23.1953C45.9297 23.1953 45.2721 23.0977 44.6602 22.9023C44.0612 22.707 43.5339 22.3945 43.0781 21.9648C42.6354 21.5221 42.2839 20.9427 42.0234 20.2266C41.776 19.4974 41.6523 18.6055 41.6523 17.5508V9.26953H39.9336C39.7513 9.26953 39.6146 9.22396 39.5234 9.13281C39.4323 9.02865 39.3867 8.91797 39.3867 8.80078C39.3867 8.68359 39.4323 8.57943 39.5234 8.48828C39.6146 8.38411 39.7513 8.33203 39.9336 8.33203H41.6523V3.46875C41.6523 3.05208 41.737 2.79167 41.9062 2.6875C42.0755 2.57031 42.2513 2.51172 42.4336 2.51172C42.6549 2.51172 42.8372 2.57031 42.9805 2.6875C43.1367 2.79167 43.2148 3.05208 43.2148 3.46875V8.33203H49.6992ZM75.3633 1.96484C75.3633 2.22526 75.2721 2.38802 75.0898 2.45312C74.9076 2.50521 74.6732 2.53125 74.3867 2.53125H63.4688V21.5547C63.4688 21.75 63.4622 21.9323 63.4492 22.1016C63.4362 22.2708 63.3971 22.4271 63.332 22.5703C63.2799 22.7005 63.2018 22.8047 63.0977 22.8828C62.9935 22.9609 62.8438 23 62.6484 23C62.3099 23 62.082 22.8568 61.9648 22.5703C61.8607 22.2708 61.8086 21.9323 61.8086 21.5547V2.53125H50.8711C50.5846 2.53125 50.3372 2.50521 50.1289 2.45312C49.9336 2.38802 49.8359 2.22526 49.8359 1.96484C49.8359 1.76953 49.8815 1.6263 49.9727 1.53516C50.0638 1.43099 50.1745 1.35938 50.3047 1.32031C50.4479 1.28125 50.6042 1.26172 50.7734 1.26172C50.9557 1.2487 51.125 1.24219 51.2812 1.24219H73.957C74.1523 1.24219 74.3346 1.2487 74.5039 1.26172C74.6732 1.26172 74.8164 1.28125 74.9336 1.32031C75.0638 1.35938 75.168 1.43099 75.2461 1.53516C75.3242 1.6263 75.3633 1.76953 75.3633 1.96484ZM75.1094 18.625C75.1094 19.25 75.2656 19.7773 75.5781 20.207C75.9036 20.6367 76.3529 20.9883 76.9258 21.2617C77.4987 21.5352 78.1758 21.737 78.957 21.8672C79.7513 21.9844 80.6172 22.043 81.5547 22.043C82.7005 22.043 83.7161 21.9648 84.6016 21.8086C85.487 21.6393 86.2617 21.431 86.9258 21.1836C87.5898 20.9362 88.1497 20.6693 88.6055 20.3828C89.0612 20.0833 89.4388 19.7969 89.7383 19.5234V15.5977C88.4362 15.4154 87.0885 15.2461 85.6953 15.0898C84.3021 14.9206 82.8958 14.8359 81.4766 14.8359C80.474 14.8359 79.5755 14.8945 78.7812 15.0117C78 15.1289 77.3359 15.3307 76.7891 15.6172C76.2422 15.9036 75.8255 16.2943 75.5391 16.7891C75.2526 17.2708 75.1094 17.8828 75.1094 18.625ZM83.4102 8.80078C82.1602 8.80078 81.0924 8.83333 80.207 8.89844C79.3216 8.96354 78.5599 9.04818 77.9219 9.15234C77.2969 9.25651 76.7695 9.36719 76.3398 9.48438C75.9102 9.60156 75.5326 9.71875 75.207 9.83594C75.0508 9.83594 74.9076 9.75781 74.7773 9.60156C74.6471 9.44531 74.582 9.27604 74.582 9.09375C74.582 8.92448 74.6602 8.80078 74.8164 8.72266C74.9206 8.67057 75.1615 8.58594 75.5391 8.46875C75.9297 8.35156 76.4701 8.23438 77.1602 8.11719C77.8633 7.98698 78.7292 7.8763 79.7578 7.78516C80.7995 7.69401 82.0234 7.64844 83.4297 7.64844C84.0938 7.64844 84.7513 7.69401 85.4023 7.78516C86.0534 7.86328 86.6654 8.01302 87.2383 8.23438C87.8242 8.45573 88.3646 8.76172 88.8594 9.15234C89.3672 9.54297 89.7969 10.0508 90.1484 10.6758C90.513 11.2878 90.7995 12.0365 91.0078 12.9219C91.2161 13.7943 91.3203 14.8229 91.3203 16.0078V21.6328C91.3203 21.7891 91.3138 21.9453 91.3008 22.1016C91.2878 22.2578 91.2487 22.4076 91.1836 22.5508C91.1315 22.681 91.0534 22.7917 90.9492 22.8828C90.8451 22.9609 90.7018 23 90.5195 23C90.2201 23 90.0117 22.8633 89.8945 22.5898C89.7904 22.3164 89.7383 21.9714 89.7383 21.5547V20.207C89.4779 20.5326 89.1393 20.8711 88.7227 21.2227C88.306 21.5742 87.7786 21.8997 87.1406 22.1992C86.5026 22.4857 85.7409 22.7266 84.8555 22.9219C83.9701 23.1042 82.9219 23.1953 81.7109 23.1953C80.5781 23.1953 79.5104 23.1107 78.5078 22.9414C77.5182 22.7721 76.6523 22.5052 75.9102 22.1406C75.181 21.776 74.6016 21.3073 74.1719 20.7344C73.7552 20.1484 73.5469 19.4453 73.5469 18.625C73.5469 17.6745 73.7422 16.8867 74.1328 16.2617C74.5365 15.6237 75.0898 15.1159 75.793 14.7383C76.4961 14.3477 77.3164 14.0742 78.2539 13.918C79.2044 13.7617 80.2266 13.6836 81.3203 13.6836C82.1406 13.6836 82.9609 13.7161 83.7812 13.7812C84.6146 13.8333 85.4023 13.918 86.1445 14.0352C86.8867 14.1393 87.5638 14.276 88.1758 14.4453C88.8008 14.6016 89.3216 14.7904 89.7383 15.0117C89.7383 13.6836 89.5625 12.6159 89.2109 11.8086C88.8594 11.0013 88.3906 10.3763 87.8047 9.93359C87.2188 9.47786 86.5417 9.17839 85.7734 9.03516C85.0182 8.87891 84.2305 8.80078 83.4102 8.80078ZM98.8984 21.6328C98.8984 22.0104 98.8529 22.3359 98.7617 22.6094C98.6706 22.8698 98.4622 23 98.1367 23C97.9414 23 97.7917 22.9674 97.6875 22.9023C97.5833 22.8242 97.5052 22.7266 97.4531 22.6094C97.401 22.4792 97.3685 22.3359 97.3555 22.1797C97.3424 22.0234 97.3359 21.8542 97.3359 21.6719V2.64844C97.3359 2.45312 97.3424 2.27083 97.3555 2.10156C97.3685 1.93229 97.401 1.78906 97.4531 1.67188C97.5182 1.54167 97.6029 1.4375 97.707 1.35938C97.8242 1.28125 97.9805 1.24219 98.1758 1.24219C98.332 1.24219 98.4557 1.28125 98.5469 1.35938C98.651 1.4375 98.7292 1.54167 98.7812 1.67188C98.8333 1.80208 98.8659 1.95182 98.8789 2.12109C98.8919 2.27734 98.8984 2.4401 98.8984 2.60938V21.6328ZM119.68 21.8477C119.771 21.9388 119.829 22.0299 119.855 22.1211C119.882 22.2122 119.908 22.3099 119.934 22.4141C119.934 22.5964 119.868 22.7396 119.738 22.8438C119.621 22.9479 119.458 23 119.25 23C119.146 23.013 119.042 22.9935 118.938 22.9414C118.846 22.8763 118.749 22.7917 118.645 22.6875L109.68 14.6016L106.711 16.2617V22.1406C106.711 22.4401 106.626 22.6615 106.457 22.8047C106.288 22.9349 106.112 23 105.93 23C105.76 23 105.585 22.9349 105.402 22.8047C105.233 22.6615 105.148 22.4401 105.148 22.1406V2.10156C105.148 1.84115 105.24 1.64583 105.422 1.51562C105.617 1.38542 105.799 1.32031 105.969 1.32031C106.151 1.32031 106.32 1.38542 106.477 1.51562C106.633 1.64583 106.711 1.84115 106.711 2.10156V14.9922L118.938 7.88281C119.016 7.84375 119.1 7.82422 119.191 7.82422C119.361 7.82422 119.497 7.88932 119.602 8.01953C119.719 8.14974 119.777 8.28646 119.777 8.42969C119.777 8.59896 119.667 8.75521 119.445 8.89844L110.871 13.9961L119.68 21.8477Z" fill="black"/>
<path d="M26.0664 20.6953L26.1357 20.9872L26.3664 20.9324V20.6953H26.0664ZM26.0664 12.5312H26.3664V12.2312H26.0664V12.5312ZM15.6172 12.5312L15.5923 12.8302L15.6047 12.8313H15.6172V12.5312ZM15.168 12.4531L15.0566 12.7317L15.0725 12.738L15.089 12.7426L15.168 12.4531ZM14.8359 12.2383L14.6082 12.4335L14.6157 12.4423L14.6238 12.4504L14.8359 12.2383ZM14.8359 11.457L14.6238 11.2449L14.6157 11.253L14.6082 11.2618L14.8359 11.457ZM15.168 11.2617L15.2542 11.5491L15.267 11.5452L15.2794 11.5403L15.168 11.2617ZM15.5977 11.1836V11.4836H15.6092L15.6207 11.4827L15.5977 11.1836ZM27.0234 21.6328L27.1948 21.8792L27.2018 21.8741L27.0234 21.6328ZM26.0664 22.043L26.0098 21.7484L26.0087 21.7486L26.0664 22.043ZM20.4609 23L20.4182 22.7031L20.4161 22.7034L20.4609 23ZM8.66406 22.7852L8.59721 23.0776L8.59767 23.0777L8.66406 22.7852ZM4.09375 20.8125L3.91457 21.0531L3.91623 21.0543L4.09375 20.8125ZM1.32031 17.3164L1.04442 17.4343L1.04576 17.4373L1.32031 17.3164ZM1.32031 6.94531L1.04535 6.82533L1.04483 6.82653L1.32031 6.94531ZM4.09375 3.44922L4.27127 3.69106L4.27293 3.68983L4.09375 3.44922ZM8.66406 1.45703L8.59767 1.16447L8.59722 1.16457L8.66406 1.45703ZM19.9727 1.30078L19.9147 1.59515L19.9171 1.59559L19.9727 1.30078ZM24.8164 2.76562L24.9367 2.49072L24.9309 2.48831L24.8164 2.76562ZM25.2656 3.11719L25.0123 3.27841L25.0199 3.28923L25.2656 3.11719ZM24.4062 3.99609L24.2907 4.27295L24.3009 4.2772L24.3114 4.2807L24.4062 3.99609ZM9.11328 2.70703L9.18057 2.9994L9.18277 2.99887L9.11328 2.70703ZM5.07031 4.50391L5.25408 4.74103L5.25449 4.74071L5.07031 4.50391ZM2.78516 7.60938L3.06509 7.71726L3.06546 7.71629L2.78516 7.60938ZM2.78516 16.6523L2.50485 16.7593L2.50523 16.7602L2.78516 16.6523ZM5.07031 19.7578L4.88469 19.9935L4.88797 19.996L5.07031 19.7578ZM9.11328 21.5547L9.04379 21.8465L9.04599 21.847L9.11328 21.5547ZM15.0508 22.4211C17.0301 22.4211 18.9197 22.29 20.7191 22.0273L20.6324 21.4336C18.8642 21.6918 17.0037 21.8211 15.0508 21.8211V22.4211ZM20.7191 22.0273C22.512 21.7656 24.3175 21.4189 26.1357 20.9872L25.9971 20.4034C24.1955 20.8311 22.4073 21.1745 20.6324 21.4336L20.7191 22.0273ZM26.3664 20.6953V12.5312H25.7664V20.6953H26.3664ZM26.0664 12.2312H16.1055V12.8313H26.0664V12.2312ZM16.1055 12.2312C16.1052 12.2312 16.1049 12.2312 16.1046 12.2312C16.1042 12.2312 16.1039 12.2312 16.1036 12.2312C16.1033 12.2312 16.103 12.2312 16.1027 12.2312C16.1024 12.2312 16.1021 12.2312 16.1018 12.2312C16.1015 12.2312 16.1012 12.2312 16.1009 12.2312C16.1006 12.2312 16.1003 12.2312 16.1 12.2312C16.0997 12.2312 16.0994 12.2312 16.0991 12.2312C16.0988 12.2312 16.0984 12.2312 16.0981 12.2312C16.0978 12.2312 16.0975 12.2312 16.0972 12.2312C16.0969 12.2312 16.0966 12.2312 16.0963 12.2312C16.096 12.2312 16.0957 12.2312 16.0954 12.2312C16.0951 12.2312 16.0948 12.2312 16.0945 12.2312C16.0942 12.2312 16.0939 12.2312 16.0936 12.2312C16.0932 12.2312 16.0929 12.2312 16.0926 12.2312C16.0923 12.2312 16.092 12.2312 16.0917 12.2312C16.0914 12.2312 16.0911 12.2312 16.0908 12.2312C16.0905 12.2312 16.0902 12.2312 16.0899 12.2312C16.0896 12.2312 16.0893 12.2312 16.089 12.2312C16.0887 12.2312 16.0884 12.2312 16.088 12.2312C16.0877 12.2312 16.0874 12.2312 16.0871 12.2312C16.0868 12.2312 16.0865 12.2312 16.0862 12.2312C16.0859 12.2312 16.0856 12.2312 16.0853 12.2312C16.085 12.2312 16.0847 12.2312 16.0844 12.2312C16.0841 12.2312 16.0838 12.2312 16.0835 12.2312C16.0831 12.2312 16.0828 12.2312 16.0825 12.2312C16.0822 12.2312 16.0819 12.2312 16.0816 12.2312C16.0813 12.2312 16.081 12.2312 16.0807 12.2312C16.0804 12.2312 16.0801 12.2312 16.0798 12.2312C16.0795 12.2312 16.0792 12.2312 16.0789 12.2312C16.0785 12.2312 16.0782 12.2312 16.0779 12.2312C16.0776 12.2312 16.0773 12.2312 16.077 12.2312C16.0767 12.2312 16.0764 12.2312 16.0761 12.2312C16.0758 12.2312 16.0755 12.2312 16.0752 12.2312C16.0749 12.2312 16.0746 12.2312 16.0743 12.2312C16.0739 12.2312 16.0736 12.2312 16.0733 12.2312C16.073 12.2312 16.0727 12.2312 16.0724 12.2312C16.0721 12.2312 16.0718 12.2312 16.0715 12.2312C16.0712 12.2312 16.0709 12.2312 16.0706 12.2312C16.0703 12.2312 16.07 12.2312 16.0696 12.2312C16.0693 12.2312 16.069 12.2312 16.0687 12.2312C16.0684 12.2312 16.0681 12.2312 16.0678 12.2312C16.0675 12.2312 16.0672 12.2312 16.0669 12.2312C16.0666 12.2312 16.0663 12.2312 16.066 12.2312C16.0657 12.2312 16.0653 12.2312 16.065 12.2312C16.0647 12.2312 16.0644 12.2312 16.0641 12.2312C16.0638 12.2312 16.0635 12.2312 16.0632 12.2312C16.0629 12.2312 16.0626 12.2312 16.0623 12.2312C16.062 12.2312 16.0617 12.2312 16.0614 12.2312C16.061 12.2312 16.0607 12.2312 16.0604 12.2312C16.0601 12.2312 16.0598 12.2312 16.0595 12.2312C16.0592 12.2312 16.0589 12.2312 16.0586 12.2312C16.0583 12.2312 16.058 12.2312 16.0577 12.2312C16.0574 12.2312 16.057 12.2312 16.0567 12.2312C16.0564 12.2312 16.0561 12.2312 16.0558 12.2312C16.0555 12.2312 16.0552 12.2312 16.0549 12.2312C16.0546 12.2312 16.0543 12.2312 16.054 12.2312C16.0537 12.2312 16.0533 12.2312 16.053 12.2312C16.0527 12.2312 16.0524 12.2312 16.0521 12.2312C16.0518 12.2312 16.0515 12.2312 16.0512 12.2312C16.0509 12.2312 16.0506 12.2312 16.0503 12.2312C16.05 12.2312 16.0497 12.2312 16.0493 12.2312C16.049 12.2312 16.0487 12.2312 16.0484 12.2312C16.0481 12.2312 16.0478 12.2312 16.0475 12.2312C16.0472 12.2312 16.0469 12.2312 16.0466 12.2312C16.0463 12.2312 16.046 12.2312 16.0456 12.2312C16.0453 12.2312 16.045 12.2312 16.0447 12.2312C16.0444 12.2312 16.0441 12.2312 16.0438 12.2312C16.0435 12.2312 16.0432 12.2312 16.0429 12.2312C16.0426 12.2312 16.0423 12.2312 16.0419 12.2312C16.0416 12.2312 16.0413 12.2312 16.041 12.2312C16.0407 12.2312 16.0404 12.2312 16.0401 12.2312C16.0398 12.2312 16.0395 12.2312 16.0392 12.2312C16.0389 12.2312 16.0385 12.2312 16.0382 12.2312C16.0379 12.2312 16.0376 12.2312 16.0373 12.2312C16.037 12.2312 16.0367 12.2312 16.0364 12.2312C16.0361 12.2312 16.0358 12.2312 16.0355 12.2312C16.0351 12.2312 16.0348 12.2312 16.0345 12.2312C16.0342 12.2312 16.0339 12.2312 16.0336 12.2312C16.0333 12.2312 16.033 12.2312 16.0327 12.2312C16.0324 12.2312 16.0321 12.2312 16.0317 12.2312C16.0314 12.2312 16.0311 12.2312 16.0308 12.2312C16.0305 12.2312 16.0302 12.2312 16.0299 12.2312C16.0296 12.2312 16.0293 12.2312 16.029 12.2312C16.0287 12.2312 16.0283 12.2312 16.028 12.2312C16.0277 12.2312 16.0274 12.2312 16.0271 12.2312C16.0268 12.2312 16.0265 12.2312 16.0262 12.2312C16.0259 12.2312 16.0256 12.2312 16.0253 12.2312C16.0249 12.2312 16.0246 12.2312 16.0243 12.2312C16.024 12.2312 16.0237 12.2312 16.0234 12.2312C16.0231 12.2312 16.0228 12.2312 16.0225 12.2312C16.0222 12.2312 16.0218 12.2312 16.0215 12.2312C16.0212 12.2312 16.0209 12.2312 16.0206 12.2312C16.0203 12.2312 16.02 12.2312 16.0197 12.2312C16.0194 12.2312 16.0191 12.2312 16.0188 12.2312C16.0184 12.2312 16.0181 12.2312 16.0178 12.2312C16.0175 12.2312 16.0172 12.2312 16.0169 12.2312C16.0166 12.2312 16.0163 12.2312 16.016 12.2312C16.0157 12.2312 16.0153 12.2312 16.015 12.2312C16.0147 12.2312 16.0144 12.2312 16.0141 12.2312C16.0138 12.2312 16.0135 12.2312 16.0132 12.2312C16.0129 12.2312 16.0126 12.2312 16.0122 12.2312C16.0119 12.2312 16.0116 12.2312 16.0113 12.2312C16.011 12.2312 16.0107 12.2312 16.0104 12.2312C16.0101 12.2312 16.0098 12.2312 16.0094 12.2312C16.0091 12.2312 16.0088 12.2312 16.0085 12.2312C16.0082 12.2312 16.0079 12.2312 16.0076 12.2312C16.0073 12.2312 16.007 12.2312 16.0067 12.2312C16.0063 12.2312 16.006 12.2312 16.0057 12.2312C16.0054 12.2312 16.0051 12.2312 16.0048 12.2312C16.0045 12.2312 16.0042 12.2312 16.0039 12.2312C16.0035 12.2312 16.0032 12.2312 16.0029 12.2312C16.0026 12.2312 16.0023 12.2312 16.002 12.2312C16.0017 12.2312 16.0014 12.2312 16.0011 12.2312C16.0008 12.2312 16.0004 12.2312 16.0001 12.2312C15.9998 12.2312 15.9995 12.2312 15.9992 12.2312C15.9989 12.2312 15.9986 12.2312 15.9983 12.2312C15.998 12.2312 15.9976 12.2312 15.9973 12.2312C15.997 12.2312 15.9967 12.2312 15.9964 12.2312C15.9961 12.2312 15.9958 12.2312 15.9955 12.2312C15.9952 12.2312 15.9948 12.2312 15.9945 12.2312C15.9942 12.2312 15.9939 12.2312 15.9936 12.2312C15.9933 12.2312 15.993 12.2312 15.9927 12.2312C15.9924 12.2312 15.992 12.2312 15.9917 12.2312C15.9914 12.2312 15.9911 12.2312 15.9908 12.2312C15.9905 12.2312 15.9902 12.2312 15.9899 12.2312C15.9896 12.2312 15.9892 12.2312 15.9889 12.2312C15.9886 12.2312 15.9883 12.2312 15.988 12.2312C15.9877 12.2312 15.9874 12.2312 15.9871 12.2312C15.9867 12.2312 15.9864 12.2312 15.9861 12.2312C15.9858 12.2312 15.9855 12.2312 15.9852 12.2312C15.9849 12.2312 15.9846 12.2312 15.9843 12.2312C15.9839 12.2312 15.9836 12.2312 15.9833 12.2312C15.983 12.2312 15.9827 12.2312 15.9824 12.2312C15.9821 12.2312 15.9818 12.2312 15.9815 12.2312C15.9811 12.2312 15.9808 12.2312 15.9805 12.2312C15.9802 12.2312 15.9799 12.2312 15.9796 12.2312C15.9793 12.2312 15.979 12.2312 15.9786 12.2312C15.9783 12.2312 15.978 12.2312 15.9777 12.2312C15.9774 12.2312 15.9771 12.2312 15.9768 12.2312C15.9765 12.2312 15.9761 12.2312 15.9758 12.2312C15.9755 12.2312 15.9752 12.2312 15.9749 12.2312C15.9746 12.2312 15.9743 12.2312 15.974 12.2312C15.9736 12.2312 15.9733 12.2312 15.973 12.2312C15.9727 12.2312 15.9724 12.2312 15.9721 12.2312C15.9718 12.2312 15.9715 12.2312 15.9712 12.2312C15.9708 12.2312 15.9705 12.2312 15.9702 12.2312C15.9699 12.2312 15.9696 12.2312 15.9693 12.2312C15.969 12.2312 15.9687 12.2312 15.9683 12.2312C15.968 12.2312 15.9677 12.2312 15.9674 12.2312C15.9671 12.2312 15.9668 12.2312 15.9665 12.2312C15.9662 12.2312 15.9658 12.2312 15.9655 12.2312C15.9652 12.2312 15.9649 12.2312 15.9646 12.2312C15.9643 12.2312 15.964 12.2312 15.9636 12.2312C15.9633 12.2312 15.963 12.2312 15.9627 12.2312C15.9624 12.2312 15.9621 12.2312 15.9618 12.2312C15.9615 12.2312 15.9611 12.2312 15.9608 12.2312C15.9605 12.2312 15.9602 12.2312 15.9599 12.2312C15.9596 12.2312 15.9593 12.2312 15.959 12.2312C15.9586 12.2312 15.9583 12.2312 15.958 12.2312C15.9577 12.2312 15.9574 12.2312 15.9571 12.2312C15.9568 12.2312 15.9565 12.2312 15.9561 12.2312C15.9558 12.2312 15.9555 12.2312 15.9552 12.2312C15.9549 12.2312 15.9546 12.2312 15.9543 12.2312C15.9539 12.2312 15.9536 12.2312 15.9533 12.2312C15.953 12.2312 15.9527 12.2312 15.9524 12.2312C15.9521 12.2312 15.9518 12.2312 15.9514 12.2312C15.9511 12.2312 15.9508 12.2312 15.9505 12.2312C15.9502 12.2312 15.9499 12.2312 15.9496 12.2312C15.9492 12.2312 15.9489 12.2312 15.9486 12.2312C15.9483 12.2312 15.948 12.2312 15.9477 12.2312C15.9474 12.2312 15.947 12.2312 15.9467 12.2312C15.9464 12.2312 15.9461 12.2312 15.9458 12.2312C15.9455 12.2312 15.9452 12.2312 15.9449 12.2312C15.9445 12.2312 15.9442 12.2312 15.9439 12.2312C15.9436 12.2312 15.9433 12.2312 15.943 12.2312C15.9427 12.2312 15.9423 12.2312 15.942 12.2312C15.9417 12.2312 15.9414 12.2312 15.9411 12.2312C15.9408 12.2312 15.9405 12.2312 15.9401 12.2312C15.9398 12.2312 15.9395 12.2312 15.9392 12.2312C15.9389 12.2312 15.9386 12.2312 15.9383 12.2312C15.9379 12.2312 15.9376 12.2312 15.9373 12.2312C15.937 12.2312 15.9367 12.2312 15.9364 12.2312C15.9361 12.2312 15.9357 12.2312 15.9354 12.2312C15.9351 12.2312 15.9348 12.2312 15.9345 12.2312C15.9342 12.2312 15.9339 12.2312 15.9335 12.2312C15.9332 12.2312 15.9329 12.2312 15.9326 12.2312C15.9323 12.2312 15.932 12.2312 15.9317 12.2312C15.9313 12.2312 15.931 12.2312 15.9307 12.2312C15.9304 12.2312 15.9301 12.2312 15.9298 12.2312C15.9295 12.2312 15.9291 12.2312 15.9288 12.2312C15.9285 12.2312 15.9282 12.2312 15.9279 12.2312C15.9276 12.2312 15.9273 12.2312 15.9269 12.2312C15.9266 12.2312 15.9263 12.2312 15.926 12.2312C15.9257 12.2312 15.9254 12.2312 15.9251 12.2312C15.9247 12.2312 15.9244 12.2312 15.9241 12.2312C15.9238 12.2312 15.9235 12.2312 15.9232 12.2312C15.9228 12.2312 15.9225 12.2312 15.9222 12.2312C15.9219 12.2312 15.9216 12.2312 15.9213 12.2312C15.921 12.2312 15.9206 12.2312 15.9203 12.2312C15.92 12.2312 15.9197 12.2312 15.9194 12.2312C15.9191 12.2312 15.9188 12.2312 15.9184 12.2312C15.9181 12.2312 15.9178 12.2312 15.9175 12.2312C15.9172 12.2312 15.9169 12.2312 15.9165 12.2312C15.9162 12.2312 15.9159 12.2312 15.9156 12.2312C15.9153 12.2312 15.915 12.2312 15.9147 12.2312C15.9143 12.2312 15.914 12.2312 15.9137 12.2312C15.9134 12.2312 15.9131 12.2312 15.9128 12.2312C15.9124 12.2312 15.9121 12.2312 15.9118 12.2312C15.9115 12.2312 15.9112 12.2312 15.9109 12.2312C15.9106 12.2312 15.9102 12.2312 15.9099 12.2312C15.9096 12.2312 15.9093 12.2312 15.909 12.2312C15.9087 12.2312 15.9083 12.2312 15.908 12.2312C15.9077 12.2312 15.9074 12.2312 15.9071 12.2312C15.9068 12.2312 15.9064 12.2312 15.9061 12.2312C15.9058 12.2312 15.9055 12.2312 15.9052 12.2312C15.9049 12.2312 15.9046 12.2312 15.9042 12.2312C15.9039 12.2312 15.9036 12.2312 15.9033 12.2312C15.903 12.2312 15.9027 12.2312 15.9023 12.2312C15.902 12.2312 15.9017 12.2312 15.9014 12.2312C15.9011 12.2312 15.9008 12.2312 15.9004 12.2312C15.9001 12.2312 15.8998 12.2312 15.8995 12.2312C15.8992 12.2312 15.8989 12.2312 15.8985 12.2312C15.8982 12.2312 15.8979 12.2312 15.8976 12.2312C15.8973 12.2312 15.897 12.2312 15.8967 12.2312C15.8963 12.2312 15.896 12.2312 15.8957 12.2312C15.8954 12.2312 15.8951 12.2312 15.8948 12.2312C15.8944 12.2312 15.8941 12.2312 15.8938 12.2312C15.8935 12.2312 15.8932 12.2312 15.8929 12.2312C15.8925 12.2312 15.8922 12.2312 15.8919 12.2312C15.8916 12.2312 15.8913 12.2312 15.891 12.2312C15.8906 12.2312 15.8903 12.2312 15.89 12.2312C15.8897 12.2312 15.8894 12.2312 15.8891 12.2312C15.8887 12.2312 15.8884 12.2312 15.8881 12.2312C15.8878 12.2312 15.8875 12.2312 15.8872 12.2312C15.8868 12.2312 15.8865 12.2312 15.8862 12.2312C15.8859 12.2312 15.8856 12.2312 15.8853 12.2312C15.8849 12.2312 15.8846 12.2312 15.8843 12.2312C15.884 12.2312 15.8837 12.2312 15.8834 12.2312C15.883 12.2312 15.8827 12.2312 15.8824 12.2312C15.8821 12.2312 15.8818 12.2312 15.8815 12.2312C15.8811 12.2312 15.8808 12.2312 15.8805 12.2312C15.8802 12.2312 15.8799 12.2312 15.8795 12.2312C15.8792 12.2312 15.8789 12.2312 15.8786 12.2312C15.8783 12.2312 15.878 12.2312 15.8776 12.2312C15.8773 12.2312 15.877 12.2312 15.8767 12.2312C15.8764 12.2312 15.8761 12.2312 15.8757 12.2312C15.8754 12.2312 15.8751 12.2312 15.8748 12.2312C15.8745 12.2312 15.8742 12.2312 15.8738 12.2312C15.8735 12.2312 15.8732 12.2312 15.8729 12.2312C15.8726 12.2312 15.8722 12.2312 15.8719 12.2312C15.8716 12.2312 15.8713 12.2312 15.871 12.2312C15.8707 12.2312 15.8703 12.2312 15.87 12.2312C15.8697 12.2312 15.8694 12.2312 15.8691 12.2312C15.8688 12.2312 15.8684 12.2312 15.8681 12.2312C15.8678 12.2312 15.8675 12.2312 15.8672 12.2312C15.8668 12.2312 15.8665 12.2312 15.8662 12.2312C15.8659 12.2312 15.8656 12.2312 15.8653 12.2312C15.8649 12.2312 15.8646 12.2312 15.8643 12.2312C15.864 12.2312 15.8637 12.2312 15.8633 12.2312C15.863 12.2312 15.8627 12.2312 15.8624 12.2312C15.8621 12.2312 15.8618 12.2312 15.8614 12.2312C15.8611 12.2312 15.8608 12.2312 15.8605 12.2312C15.8602 12.2312 15.8598 12.2312 15.8595 12.2312C15.8592 12.2312 15.8589 12.2312 15.8586 12.2312C15.8583 12.2312 15.8579 12.2312 15.8576 12.2312C15.8573 12.2312 15.857 12.2312 15.8567 12.2312C15.8563 12.2312 15.856 12.2312 15.8557 12.2312C15.8554 12.2312 15.8551 12.2312 15.8548 12.2312C15.8544 12.2312 15.8541 12.2312 15.8538 12.2312C15.8535 12.2312 15.8532 12.2312 15.8528 12.2312C15.8525 12.2312 15.8522 12.2312 15.8519 12.2312C15.8516 12.2312 15.8513 12.2312 15.8509 12.2312C15.8506 12.2312 15.8503 12.2312 15.85 12.2312C15.8497 12.2312 15.8493 12.2312 15.849 12.2312C15.8487 12.2312 15.8484 12.2312 15.8481 12.2312C15.8477 12.2312 15.8474 12.2312 15.8471 12.2312C15.8468 12.2312 15.8465 12.2312 15.8462 12.2312C15.8458 12.2312 15.8455 12.2312 15.8452 12.2312C15.8449 12.2312 15.8446 12.2312 15.8442 12.2312C15.8439 12.2312 15.8436 12.2312 15.8433 12.2312C15.843 12.2312 15.8426 12.2312 15.8423 12.2312C15.842 12.2312 15.8417 12.2312 15.8414 12.2312C15.841 12.2312 15.8407 12.2312 15.8404 12.2312C15.8401 12.2312 15.8398 12.2312 15.8394 12.2312C15.8391 12.2312 15.8388 12.2312 15.8385 12.2312C15.8382 12.2312 15.8379 12.2312 15.8375 12.2312C15.8372 12.2312 15.8369 12.2312 15.8366 12.2312C15.8363 12.2312 15.8359 12.2312 15.8356 12.2312C15.8353 12.2312 15.835 12.2312 15.8347 12.2312C15.8343 12.2312 15.834 12.2312 15.8337 12.2312C15.8334 12.2312 15.8331 12.2312 15.8327 12.2312C15.8324 12.2312 15.8321 12.2312 15.8318 12.2312C15.8315 12.2312 15.8311 12.2312 15.8308 12.2312C15.8305 12.2312 15.8302 12.2312 15.8299 12.2312C15.8295 12.2312 15.8292 12.2312 15.8289 12.2312C15.8286 12.2312 15.8283 12.2312 15.8279 12.2312C15.8276 12.2312 15.8273 12.2312 15.827 12.2312C15.8267 12.2312 15.8263 12.2312 15.826 12.2312C15.8257 12.2312 15.8254 12.2312 15.8251 12.2312C15.8247 12.2312 15.8244 12.2312 15.8241 12.2312C15.8238 12.2312 15.8235 12.2312 15.8231 12.2312C15.8228 12.2312 15.8225 12.2312 15.8222 12.2312C15.8219 12.2312 15.8215 12.2312 15.8212 12.2312C15.8209 12.2312 15.8206 12.2312 15.8203 12.2312C15.8199 12.2312 15.8196 12.2312 15.8193 12.2312C15.819 12.2312 15.8187 12.2312 15.8183 12.2312C15.818 12.2312 15.8177 12.2312 15.8174 12.2312C15.8171 12.2312 15.8167 12.2312 15.8164 12.2312C15.8161 12.2312 15.8158 12.2312 15.8155 12.2312C15.8151 12.2312 15.8148 12.2312 15.8145 12.2312C15.8142 12.2312 15.8139 12.2312 15.8135 12.2312C15.8132 12.2312 15.8129 12.2312 15.8126 12.2312C15.8123 12.2312 15.8119 12.2312 15.8116 12.2312C15.8113 12.2312 15.811 12.2312 15.8106 12.2312C15.8103 12.2312 15.81 12.2312 15.8097 12.2312C15.8094 12.2312 15.809 12.2312 15.8087 12.2312C15.8084 12.2312 15.8081 12.2312 15.8078 12.2312C15.8074 12.2312 15.8071 12.2312 15.8068 12.2312C15.8065 12.2312 15.8062 12.2312 15.8058 12.2312C15.8055 12.2312 15.8052 12.2312 15.8049 12.2312C15.8045 12.2312 15.8042 12.2312 15.8039 12.2312C15.8036 12.2312 15.8033 12.2312 15.8029 12.2312C15.8026 12.2312 15.8023 12.2312 15.802 12.2312C15.8017 12.2312 15.8013 12.2312 15.801 12.2312C15.8007 12.2312 15.8004 12.2312 15.8001 12.2312C15.7997 12.2312 15.7994 12.2312 15.7991 12.2312C15.7988 12.2312 15.7984 12.2312 15.7981 12.2312C15.7978 12.2312 15.7975 12.2312 15.7972 12.2312C15.7968 12.2312 15.7965 12.2312 15.7962 12.2312C15.7959 12.2312 15.7956 12.2312 15.7952 12.2312C15.7949 12.2312 15.7946 12.2312 15.7943 12.2312C15.7939 12.2312 15.7936 12.2312 15.7933 12.2312C15.793 12.2312 15.7927 12.2312 15.7923 12.2312C15.792 12.2312 15.7917 12.2312 15.7914 12.2312C15.791 12.2312 15.7907 12.2312 15.7904 12.2312C15.7901 12.2312 15.7898 12.2312 15.7894 12.2312C15.7891 12.2312 15.7888 12.2312 15.7885 12.2312C15.7882 12.2312 15.7878 12.2312 15.7875 12.2312C15.7872 12.2312 15.7869 12.2312 15.7865 12.2312C15.7862 12.2312 15.7859 12.2312 15.7856 12.2312C15.7853 12.2312 15.7849 12.2312 15.7846 12.2312C15.7843 12.2312 15.784 12.2312 15.7836 12.2312C15.7833 12.2312 15.783 12.2312 15.7827 12.2312C15.7824 12.2312 15.782 12.2312 15.7817 12.2312C15.7814 12.2312 15.7811 12.2312 15.7807 12.2312C15.7804 12.2312 15.7801 12.2312 15.7798 12.2312C15.7795 12.2312 15.7791 12.2312 15.7788 12.2312C15.7785 12.2312 15.7782 12.2312 15.7778 12.2312C15.7775 12.2312 15.7772 12.2312 15.7769 12.2312C15.7766 12.2312 15.7762 12.2312 15.7759 12.2312C15.7756 12.2312 15.7753 12.2312 15.7749 12.2312C15.7746 12.2312 15.7743 12.2312 15.774 12.2312C15.7736 12.2312 15.7733 12.2312 15.773 12.2312C15.7727 12.2312 15.7724 12.2312 15.772 12.2312C15.7717 12.2312 15.7714 12.2312 15.7711 12.2312C15.7707 12.2312 15.7704 12.2312 15.7701 12.2312C15.7698 12.2312 15.7695 12.2312 15.7691 12.2312C15.7688 12.2312 15.7685 12.2312 15.7682 12.2312C15.7678 12.2312 15.7675 12.2312 15.7672 12.2312C15.7669 12.2312 15.7665 12.2312 15.7662 12.2312C15.7659 12.2312 15.7656 12.2312 15.7653 12.2312C15.7649 12.2312 15.7646 12.2312 15.7643 12.2312C15.764 12.2312 15.7636 12.2312 15.7633 12.2312C15.763 12.2312 15.7627 12.2312 15.7623 12.2312C15.762 12.2312 15.7617 12.2312 15.7614 12.2312C15.7611 12.2312 15.7607 12.2312 15.7604 12.2312C15.7601 12.2312 15.7598 12.2312 15.7594 12.2312C15.7591 12.2312 15.7588 12.2312 15.7585 12.2312C15.7581 12.2312 15.7578 12.2312 15.7575 12.2312C15.7572 12.2312 15.7568 12.2312 15.7565 12.2312C15.7562 12.2312 15.7559 12.2312 15.7556 12.2312C15.7552 12.2312 15.7549 12.2312 15.7546 12.2312C15.7543 12.2312 15.7539 12.2312 15.7536 12.2312C15.7533 12.2312 15.753 12.2312 15.7526 12.2312C15.7523 12.2312 15.752 12.2312 15.7517 12.2312C15.7513 12.2312 15.751 12.2312 15.7507 12.2312C15.7504 12.2312 15.75 12.2312 15.7497 12.2312C15.7494 12.2312 15.7491 12.2312 15.7488 12.2312C15.7484 12.2312 15.7481 12.2312 15.7478 12.2312C15.7475 12.2312 15.7471 12.2312 15.7468 12.2312C15.7465 12.2312 15.7462 12.2312 15.7458 12.2312C15.7455 12.2312 15.7452 12.2312 15.7449 12.2312C15.7445 12.2312 15.7442 12.2312 15.7439 12.2312C15.7436 12.2312 15.7432 12.2312 15.7429 12.2312C15.7426 12.2312 15.7423 12.2312 15.7419 12.2312C15.7416 12.2312 15.7413 12.2312 15.741 12.2312C15.7406 12.2312 15.7403 12.2312 15.74 12.2312C15.7397 12.2312 15.7394 12.2312 15.739 12.2312C15.7387 12.2312 15.7384 12.2312 15.7381 12.2312C15.7377 12.2312 15.7374 12.2312 15.7371 12.2312C15.7368 12.2312 15.7364 12.2312 15.7361 12.2312C15.7358 12.2312 15.7355 12.2312 15.7351 12.2312C15.7348 12.2312 15.7345 12.2312 15.7342 12.2312C15.7338 12.2312 15.7335 12.2312 15.7332 12.2312C15.7329 12.2312 15.7325 12.2312 15.7322 12.2312C15.7319 12.2312 15.7316 12.2312 15.7312 12.2312C15.7309 12.2312 15.7306 12.2312 15.7303 12.2312C15.7299 12.2312 15.7296 12.2312 15.7293 12.2312C15.729 12.2312 15.7286 12.2312 15.7283 12.2312C15.728 12.2312 15.7277 12.2312 15.7273 12.2312C15.727 12.2312 15.7267 12.2312 15.7264 12.2312C15.726 12.2312 15.7257 12.2312 15.7254 12.2312C15.7251 12.2312 15.7247 12.2312 15.7244 12.2312C15.7241 12.2312 15.7238 12.2312 15.7234 12.2312C15.7231 12.2312 15.7228 12.2312 15.7225 12.2312C15.7221 12.2312 15.7218 12.2312 15.7215 12.2312C15.7212 12.2312 15.7208 12.2312 15.7205 12.2312C15.7202 12.2312 15.7199 12.2312 15.7195 12.2312C15.7192 12.2312 15.7189 12.2312 15.7186 12.2312C15.7182 12.2312 15.7179 12.2312 15.7176 12.2312C15.7173 12.2312 15.7169 12.2312 15.7166 12.2312C15.7163 12.2312 15.716 12.2312 15.7156 12.2312C15.7153 12.2312 15.715 12.2312 15.7146 12.2312C15.7143 12.2312 15.714 12.2312 15.7137 12.2312C15.7133 12.2312 15.713 12.2312 15.7127 12.2312C15.7124 12.2312 15.712 12.2312 15.7117 12.2312C15.7114 12.2312 15.7111 12.2312 15.7107 12.2312C15.7104 12.2312 15.7101 12.2312 15.7098 12.2312C15.7094 12.2312 15.7091 12.2312 15.7088 12.2312C15.7085 12.2312 15.7081 12.2312 15.7078 12.2312C15.7075 12.2312 15.7072 12.2312 15.7068 12.2312C15.7065 12.2312 15.7062 12.2312 15.7058 12.2312C15.7055 12.2312 15.7052 12.2312 15.7049 12.2312C15.7045 12.2312 15.7042 12.2312 15.7039 12.2312C15.7036 12.2312 15.7032 12.2312 15.7029 12.2312C15.7026 12.2312 15.7023 12.2312 15.7019 12.2312C15.7016 12.2312 15.7013 12.2312 15.701 12.2312C15.7006 12.2312 15.7003 12.2312 15.7 12.2312C15.6996 12.2312 15.6993 12.2312 15.699 12.2312C15.6987 12.2312 15.6983 12.2312 15.698 12.2312C15.6977 12.2312 15.6974 12.2312 15.697 12.2312C15.6967 12.2312 15.6964 12.2312 15.6961 12.2312C15.6957 12.2312 15.6954 12.2312 15.6951 12.2312C15.6947 12.2312 15.6944 12.2312 15.6941 12.2312C15.6938 12.2312 15.6934 12.2312 15.6931 12.2312C15.6928 12.2312 15.6925 12.2312 15.6921 12.2312C15.6918 12.2312 15.6915 12.2312 15.6912 12.2312C15.6908 12.2312 15.6905 12.2312 15.6902 12.2312C15.6898 12.2312 15.6895 12.2312 15.6892 12.2312C15.6889 12.2312 15.6885 12.2312 15.6882 12.2312C15.6879 12.2312 15.6876 12.2312 15.6872 12.2312C15.6869 12.2312 15.6866 12.2312 15.6862 12.2312C15.6859 12.2312 15.6856 12.2312 15.6853 12.2312C15.6849 12.2312 15.6846 12.2312 15.6843 12.2312C15.684 12.2312 15.6836 12.2312 15.6833 12.2312C15.683 12.2312 15.6827 12.2312 15.6823 12.2312C15.682 12.2312 15.6817 12.2312 15.6813 12.2312C15.681 12.2312 15.6807 12.2312 15.6804 12.2312C15.68 12.2312 15.6797 12.2312 15.6794 12.2312C15.679 12.2312 15.6787 12.2312 15.6784 12.2312C15.6781 12.2312 15.6777 12.2312 15.6774 12.2312C15.6771 12.2312 15.6768 12.2312 15.6764 12.2312C15.6761 12.2312 15.6758 12.2312 15.6754 12.2312C15.6751 12.2312 15.6748 12.2312 15.6745 12.2312C15.6741 12.2312 15.6738 12.2312 15.6735 12.2312C15.6732 12.2312 15.6728 12.2312 15.6725 12.2312C15.6722 12.2312 15.6718 12.2312 15.6715 12.2312C15.6712 12.2312 15.6709 12.2312 15.6705 12.2312C15.6702 12.2312 15.6699 12.2312 15.6695 12.2312C15.6692 12.2312 15.6689 12.2312 15.6686 12.2312C15.6682 12.2312 15.6679 12.2312 15.6676 12.2312C15.6672 12.2312 15.6669 12.2312 15.6666 12.2312C15.6663 12.2312 15.6659 12.2312 15.6656 12.2312C15.6653 12.2312 15.665 12.2312 15.6646 12.2312C15.6643 12.2312 15.664 12.2312 15.6636 12.2312C15.6633 12.2312 15.663 12.2312 15.6627 12.2312C15.6623 12.2312 15.662 12.2312 15.6617 12.2312C15.6613 12.2312 15.661 12.2312 15.6607 12.2312C15.6604 12.2312 15.66 12.2312 15.6597 12.2312C15.6594 12.2312 15.659 12.2312 15.6587 12.2312C15.6584 12.2312 15.6581 12.2312 15.6577 12.2312C15.6574 12.2312 15.6571 12.2312 15.6567 12.2312C15.6564 12.2312 15.6561 12.2312 15.6558 12.2312C15.6554 12.2312 15.6551 12.2312 15.6548 12.2312C15.6544 12.2312 15.6541 12.2312 15.6538 12.2312C15.6535 12.2312 15.6531 12.2312 15.6528 12.2312C15.6525 12.2312 15.6521 12.2312 15.6518 12.2312C15.6515 12.2312 15.6512 12.2312 15.6508 12.2312C15.6505 12.2312 15.6502 12.2312 15.6498 12.2312C15.6495 12.2312 15.6492 12.2312 15.6488 12.2312C15.6485 12.2312 15.6482 12.2312 15.6479 12.2312C15.6475 12.2312 15.6472 12.2312 15.6469 12.2312C15.6465 12.2312 15.6462 12.2312 15.6459 12.2312C15.6456 12.2312 15.6452 12.2312 15.6449 12.2312C15.6446 12.2312 15.6442 12.2312 15.6439 12.2312C15.6436 12.2312 15.6433 12.2312 15.6429 12.2312C15.6426 12.2312 15.6423 12.2312 15.6419 12.2312C15.6416 12.2312 15.6413 12.2312 15.6409 12.2312C15.6406 12.2312 15.6403 12.2312 15.64 12.2312C15.6396 12.2312 15.6393 12.2312 15.639 12.2312C15.6386 12.2312 15.6383 12.2312 15.638 12.2312C15.6377 12.2312 15.6373 12.2312 15.637 12.2312C15.6367 12.2312 15.6363 12.2312 15.636 12.2312C15.6357 12.2312 15.6353 12.2312 15.635 12.2312C15.6347 12.2312 15.6344 12.2312 15.634 12.2312C15.6337 12.2312 15.6334 12.2312 15.633 12.2312C15.6327 12.2312 15.6324 12.2312 15.632 12.2312C15.6317 12.2312 15.6314 12.2312 15.6311 12.2312C15.6307 12.2312 15.6304 12.2312 15.6301 12.2312C15.6297 12.2312 15.6294 12.2312 15.6291 12.2312C15.6287 12.2312 15.6284 12.2312 15.6281 12.2312C15.6278 12.2312 15.6274 12.2312 15.6271 12.2312C15.6268 12.2312 15.6264 12.2312 15.6261 12.2312C15.6258 12.2312 15.6254 12.2312 15.6251 12.2312C15.6248 12.2312 15.6245 12.2312 15.6241 12.2312C15.6238 12.2312 15.6235 12.2312 15.6231 12.2312C15.6228 12.2312 15.6225 12.2312 15.6221 12.2312C15.6218 12.2312 15.6215 12.2312 15.6212 12.2312C15.6208 12.2312 15.6205 12.2312 15.6202 12.2312C15.6198 12.2312 15.6195 12.2312 15.6192 12.2312C15.6188 12.2312 15.6185 12.2312 15.6182 12.2312C15.6178 12.2312 15.6175 12.2312 15.6172 12.2312V12.8313C15.6175 12.8313 15.6178 12.8313 15.6182 12.8313C15.6185 12.8313 15.6188 12.8313 15.6192 12.8313C15.6195 12.8313 15.6198 12.8313 15.6202 12.8313C15.6205 12.8313 15.6208 12.8313 15.6212 12.8313C15.6215 12.8313 15.6218 12.8313 15.6221 12.8313C15.6225 12.8313 15.6228 12.8313 15.6231 12.8313C15.6235 12.8313 15.6238 12.8313 15.6241 12.8313C15.6245 12.8313 15.6248 12.8313 15.6251 12.8313C15.6254 12.8313 15.6258 12.8313 15.6261 12.8313C15.6264 12.8313 15.6268 12.8313 15.6271 12.8313C15.6274 12.8313 15.6278 12.8313 15.6281 12.8313C15.6284 12.8313 15.6287 12.8313 15.6291 12.8313C15.6294 12.8313 15.6297 12.8313 15.6301 12.8313C15.6304 12.8313 15.6307 12.8313 15.6311 12.8313C15.6314 12.8313 15.6317 12.8313 15.632 12.8313C15.6324 12.8313 15.6327 12.8313 15.633 12.8313C15.6334 12.8313 15.6337 12.8313 15.634 12.8313C15.6344 12.8313 15.6347 12.8313 15.635 12.8313C15.6353 12.8313 15.6357 12.8313 15.636 12.8313C15.6363 12.8313 15.6367 12.8313 15.637 12.8313C15.6373 12.8313 15.6377 12.8313 15.638 12.8313C15.6383 12.8313 15.6386 12.8313 15.639 12.8313C15.6393 12.8313 15.6396 12.8313 15.64 12.8313C15.6403 12.8313 15.6406 12.8313 15.6409 12.8313C15.6413 12.8313 15.6416 12.8313 15.6419 12.8313C15.6423 12.8313 15.6426 12.8313 15.6429 12.8313C15.6433 12.8313 15.6436 12.8313 15.6439 12.8313C15.6442 12.8313 15.6446 12.8313 15.6449 12.8313C15.6452 12.8313 15.6456 12.8313 15.6459 12.8313C15.6462 12.8313 15.6465 12.8313 15.6469 12.8313C15.6472 12.8313 15.6475 12.8313 15.6479 12.8313C15.6482 12.8313 15.6485 12.8313 15.6488 12.8313C15.6492 12.8313 15.6495 12.8313 15.6498 12.8313C15.6502 12.8313 15.6505 12.8313 15.6508 12.8313C15.6512 12.8313 15.6515 12.8313 15.6518 12.8313C15.6521 12.8313 15.6525 12.8313 15.6528 12.8313C15.6531 12.8313 15.6535 12.8313 15.6538 12.8313C15.6541 12.8313 15.6544 12.8313 15.6548 12.8313C15.6551 12.8313 15.6554 12.8313 15.6558 12.8313C15.6561 12.8313 15.6564 12.8313 15.6567 12.8313C15.6571 12.8313 15.6574 12.8313 15.6577 12.8313C15.6581 12.8313 15.6584 12.8313 15.6587 12.8313C15.659 12.8313 15.6594 12.8313 15.6597 12.8313C15.66 12.8313 15.6604 12.8313 15.6607 12.8313C15.661 12.8313 15.6613 12.8313 15.6617 12.8313C15.662 12.8313 15.6623 12.8313 15.6627 12.8313C15.663 12.8313 15.6633 12.8313 15.6636 12.8313C15.664 12.8313 15.6643 12.8313 15.6646 12.8313C15.665 12.8313 15.6653 12.8313 15.6656 12.8313C15.6659 12.8313 15.6663 12.8313 15.6666 12.8313C15.6669 12.8313 15.6672 12.8313 15.6676 12.8313C15.6679 12.8313 15.6682 12.8313 15.6686 12.8313C15.6689 12.8313 15.6692 12.8313 15.6695 12.8313C15.6699 12.8313 15.6702 12.8313 15.6705 12.8313C15.6709 12.8313 15.6712 12.8313 15.6715 12.8313C15.6718 12.8313 15.6722 12.8313 15.6725 12.8313C15.6728 12.8313 15.6732 12.8313 15.6735 12.8313C15.6738 12.8313 15.6741 12.8313 15.6745 12.8313C15.6748 12.8313 15.6751 12.8313 15.6754 12.8313C15.6758 12.8313 15.6761 12.8313 15.6764 12.8313C15.6768 12.8313 15.6771 12.8313 15.6774 12.8313C15.6777 12.8313 15.6781 12.8313 15.6784 12.8313C15.6787 12.8313 15.679 12.8313 15.6794 12.8313C15.6797 12.8313 15.68 12.8313 15.6804 12.8313C15.6807 12.8313 15.681 12.8313 15.6813 12.8313C15.6817 12.8313 15.682 12.8313 15.6823 12.8313C15.6827 12.8313 15.683 12.8313 15.6833 12.8313C15.6836 12.8313 15.684 12.8313 15.6843 12.8313C15.6846 12.8313 15.6849 12.8313 15.6853 12.8313C15.6856 12.8313 15.6859 12.8313 15.6862 12.8313C15.6866 12.8313 15.6869 12.8313 15.6872 12.8313C15.6876 12.8313 15.6879 12.8313 15.6882 12.8313C15.6885 12.8313 15.6889 12.8313 15.6892 12.8313C15.6895 12.8313 15.6898 12.8313 15.6902 12.8313C15.6905 12.8313 15.6908 12.8313 15.6912 12.8313C15.6915 12.8313 15.6918 12.8313 15.6921 12.8313C15.6925 12.8313 15.6928 12.8313 15.6931 12.8313C15.6934 12.8313 15.6938 12.8313 15.6941 12.8313C15.6944 12.8313 15.6947 12.8313 15.6951 12.8313C15.6954 12.8313 15.6957 12.8313 15.6961 12.8313C15.6964 12.8313 15.6967 12.8313 15.697 12.8313C15.6974 12.8313 15.6977 12.8313 15.698 12.8313C15.6983 12.8313 15.6987 12.8313 15.699 12.8313C15.6993 12.8313 15.6996 12.8313 15.7 12.8313C15.7003 12.8313 15.7006 12.8313 15.701 12.8313C15.7013 12.8313 15.7016 12.8313 15.7019 12.8313C15.7023 12.8313 15.7026 12.8313 15.7029 12.8313C15.7032 12.8313 15.7036 12.8313 15.7039 12.8313C15.7042 12.8313 15.7045 12.8313 15.7049 12.8313C15.7052 12.8313 15.7055 12.8313 15.7058 12.8313C15.7062 12.8313 15.7065 12.8313 15.7068 12.8313C15.7072 12.8313 15.7075 12.8313 15.7078 12.8313C15.7081 12.8313 15.7085 12.8313 15.7088 12.8313C15.7091 12.8313 15.7094 12.8313 15.7098 12.8313C15.7101 12.8313 15.7104 12.8313 15.7107 12.8313C15.7111 12.8313 15.7114 12.8313 15.7117 12.8313C15.712 12.8313 15.7124 12.8313 15.7127 12.8313C15.713 12.8313 15.7133 12.8313 15.7137 12.8313C15.714 12.8313 15.7143 12.8313 15.7146 12.8313C15.715 12.8313 15.7153 12.8313 15.7156 12.8313C15.716 12.8313 15.7163 12.8313 15.7166 12.8313C15.7169 12.8313 15.7173 12.8313 15.7176 12.8313C15.7179 12.8313 15.7182 12.8313 15.7186 12.8313C15.7189 12.8313 15.7192 12.8313 15.7195 12.8313C15.7199 12.8313 15.7202 12.8313 15.7205 12.8313C15.7208 12.8313 15.7212 12.8313 15.7215 12.8313C15.7218 12.8313 15.7221 12.8313 15.7225 12.8313C15.7228 12.8313 15.7231 12.8313 15.7234 12.8313C15.7238 12.8313 15.7241 12.8313 15.7244 12.8313C15.7247 12.8313 15.7251 12.8313 15.7254 12.8313C15.7257 12.8313 15.726 12.8313 15.7264 12.8313C15.7267 12.8313 15.727 12.8313 15.7273 12.8313C15.7277 12.8313 15.728 12.8313 15.7283 12.8313C15.7286 12.8313 15.729 12.8313 15.7293 12.8313C15.7296 12.8313 15.7299 12.8313 15.7303 12.8313C15.7306 12.8313 15.7309 12.8313 15.7312 12.8313C15.7316 12.8313 15.7319 12.8313 15.7322 12.8313C15.7325 12.8313 15.7329 12.8313 15.7332 12.8313C15.7335 12.8313 15.7338 12.8313 15.7342 12.8313C15.7345 12.8313 15.7348 12.8313 15.7351 12.8313C15.7355 12.8313 15.7358 12.8313 15.7361 12.8313C15.7364 12.8313 15.7368 12.8313 15.7371 12.8313C15.7374 12.8313 15.7377 12.8313 15.7381 12.8313C15.7384 12.8313 15.7387 12.8313 15.739 12.8313C15.7394 12.8313 15.7397 12.8313 15.74 12.8313C15.7403 12.8313 15.7406 12.8313 15.741 12.8313C15.7413 12.8313 15.7416 12.8313 15.7419 12.8313C15.7423 12.8313 15.7426 12.8313 15.7429 12.8313C15.7432 12.8313 15.7436 12.8313 15.7439 12.8313C15.7442 12.8313 15.7445 12.8313 15.7449 12.8313C15.7452 12.8313 15.7455 12.8313 15.7458 12.8313C15.7462 12.8313 15.7465 12.8313 15.7468 12.8313C15.7471 12.8313 15.7475 12.8313 15.7478 12.8313C15.7481 12.8313 15.7484 12.8313 15.7488 12.8313C15.7491 12.8313 15.7494 12.8313 15.7497 12.8313C15.75 12.8313 15.7504 12.8313 15.7507 12.8313C15.751 12.8313 15.7513 12.8313 15.7517 12.8313C15.752 12.8313 15.7523 12.8313 15.7526 12.8313C15.753 12.8313 15.7533 12.8313 15.7536 12.8313C15.7539 12.8313 15.7543 12.8313 15.7546 12.8313C15.7549 12.8313 15.7552 12.8313 15.7556 12.8313C15.7559 12.8313 15.7562 12.8313 15.7565 12.8313C15.7568 12.8313 15.7572 12.8313 15.7575 12.8313C15.7578 12.8313 15.7581 12.8313 15.7585 12.8313C15.7588 12.8313 15.7591 12.8313 15.7594 12.8313C15.7598 12.8313 15.7601 12.8313 15.7604 12.8313C15.7607 12.8313 15.7611 12.8313 15.7614 12.8313C15.7617 12.8313 15.762 12.8313 15.7623 12.8313C15.7627 12.8313 15.763 12.8313 15.7633 12.8313C15.7636 12.8313 15.764 12.8313 15.7643 12.8313C15.7646 12.8313 15.7649 12.8313 15.7653 12.8313C15.7656 12.8313 15.7659 12.8313 15.7662 12.8313C15.7665 12.8313 15.7669 12.8313 15.7672 12.8313C15.7675 12.8313 15.7678 12.8313 15.7682 12.8313C15.7685 12.8313 15.7688 12.8313 15.7691 12.8313C15.7695 12.8313 15.7698 12.8313 15.7701 12.8313C15.7704 12.8313 15.7707 12.8313 15.7711 12.8313C15.7714 12.8313 15.7717 12.8313 15.772 12.8313C15.7724 12.8313 15.7727 12.8313 15.773 12.8313C15.7733 12.8313 15.7736 12.8313 15.774 12.8313C15.7743 12.8313 15.7746 12.8313 15.7749 12.8313C15.7753 12.8313 15.7756 12.8313 15.7759 12.8313C15.7762 12.8313 15.7766 12.8313 15.7769 12.8313C15.7772 12.8313 15.7775 12.8313 15.7778 12.8313C15.7782 12.8313 15.7785 12.8313 15.7788 12.8313C15.7791 12.8313 15.7795 12.8313 15.7798 12.8313C15.7801 12.8313 15.7804 12.8313 15.7807 12.8313C15.7811 12.8313 15.7814 12.8313 15.7817 12.8313C15.782 12.8313 15.7824 12.8313 15.7827 12.8313C15.783 12.8313 15.7833 12.8313 15.7836 12.8313C15.784 12.8313 15.7843 12.8313 15.7846 12.8313C15.7849 12.8313 15.7853 12.8313 15.7856 12.8313C15.7859 12.8313 15.7862 12.8313 15.7865 12.8313C15.7869 12.8313 15.7872 12.8313 15.7875 12.8313C15.7878 12.8313 15.7882 12.8313 15.7885 12.8313C15.7888 12.8313 15.7891 12.8313 15.7894 12.8313C15.7898 12.8313 15.7901 12.8313 15.7904 12.8313C15.7907 12.8313 15.791 12.8313 15.7914 12.8313C15.7917 12.8313 15.792 12.8313 15.7923 12.8313C15.7927 12.8313 15.793 12.8313 15.7933 12.8313C15.7936 12.8313 15.7939 12.8313 15.7943 12.8313C15.7946 12.8313 15.7949 12.8313 15.7952 12.8313C15.7956 12.8313 15.7959 12.8313 15.7962 12.8313C15.7965 12.8313 15.7968 12.8313 15.7972 12.8313C15.7975 12.8313 15.7978 12.8313 15.7981 12.8313C15.7984 12.8313 15.7988 12.8313 15.7991 12.8313C15.7994 12.8313 15.7997 12.8313 15.8001 12.8313C15.8004 12.8313 15.8007 12.8313 15.801 12.8313C15.8013 12.8313 15.8017 12.8313 15.802 12.8313C15.8023 12.8313 15.8026 12.8313 15.8029 12.8313C15.8033 12.8313 15.8036 12.8313 15.8039 12.8313C15.8042 12.8313 15.8045 12.8313 15.8049 12.8313C15.8052 12.8313 15.8055 12.8313 15.8058 12.8313C15.8062 12.8313 15.8065 12.8313 15.8068 12.8313C15.8071 12.8313 15.8074 12.8313 15.8078 12.8313C15.8081 12.8313 15.8084 12.8313 15.8087 12.8313C15.809 12.8313 15.8094 12.8313 15.8097 12.8313C15.81 12.8313 15.8103 12.8313 15.8106 12.8313C15.811 12.8313 15.8113 12.8313 15.8116 12.8313C15.8119 12.8313 15.8123 12.8313 15.8126 12.8313C15.8129 12.8313 15.8132 12.8313 15.8135 12.8313C15.8139 12.8313 15.8142 12.8313 15.8145 12.8313C15.8148 12.8313 15.8151 12.8313 15.8155 12.8313C15.8158 12.8313 15.8161 12.8313 15.8164 12.8313C15.8167 12.8313 15.8171 12.8313 15.8174 12.8313C15.8177 12.8313 15.818 12.8313 15.8183 12.8313C15.8187 12.8313 15.819 12.8313 15.8193 12.8313C15.8196 12.8313 15.8199 12.8313 15.8203 12.8313C15.8206 12.8313 15.8209 12.8313 15.8212 12.8313C15.8215 12.8313 15.8219 12.8313 15.8222 12.8313C15.8225 12.8313 15.8228 12.8313 15.8231 12.8313C15.8235 12.8313 15.8238 12.8313 15.8241 12.8313C15.8244 12.8313 15.8247 12.8313 15.8251 12.8313C15.8254 12.8313 15.8257 12.8313 15.826 12.8313C15.8263 12.8313 15.8267 12.8313 15.827 12.8313C15.8273 12.8313 15.8276 12.8313 15.8279 12.8313C15.8283 12.8313 15.8286 12.8313 15.8289 12.8313C15.8292 12.8313 15.8295 12.8313 15.8299 12.8313C15.8302 12.8313 15.8305 12.8313 15.8308 12.8313C15.8311 12.8313 15.8315 12.8313 15.8318 12.8313C15.8321 12.8313 15.8324 12.8313 15.8327 12.8313C15.8331 12.8313 15.8334 12.8313 15.8337 12.8313C15.834 12.8313 15.8343 12.8313 15.8347 12.8313C15.835 12.8313 15.8353 12.8313 15.8356 12.8313C15.8359 12.8313 15.8363 12.8313 15.8366 12.8313C15.8369 12.8313 15.8372 12.8313 15.8375 12.8313C15.8379 12.8313 15.8382 12.8313 15.8385 12.8313C15.8388 12.8313 15.8391 12.8313 15.8394 12.8313C15.8398 12.8313 15.8401 12.8313 15.8404 12.8313C15.8407 12.8313 15.841 12.8313 15.8414 12.8313C15.8417 12.8313 15.842 12.8313 15.8423 12.8313C15.8426 12.8313 15.843 12.8313 15.8433 12.8313C15.8436 12.8313 15.8439 12.8313 15.8442 12.8313C15.8446 12.8313 15.8449 12.8313 15.8452 12.8313C15.8455 12.8313 15.8458 12.8313 15.8462 12.8313C15.8465 12.8313 15.8468 12.8313 15.8471 12.8313C15.8474 12.8313 15.8477 12.8313 15.8481 12.8313C15.8484 12.8313 15.8487 12.8313 15.849 12.8313C15.8493 12.8313 15.8497 12.8313 15.85 12.8313C15.8503 12.8313 15.8506 12.8313 15.8509 12.8313C15.8513 12.8313 15.8516 12.8313 15.8519 12.8313C15.8522 12.8313 15.8525 12.8313 15.8528 12.8313C15.8532 12.8313 15.8535 12.8313 15.8538 12.8313C15.8541 12.8313 15.8544 12.8313 15.8548 12.8313C15.8551 12.8313 15.8554 12.8313 15.8557 12.8313C15.856 12.8313 15.8563 12.8313 15.8567 12.8313C15.857 12.8313 15.8573 12.8313 15.8576 12.8313C15.8579 12.8313 15.8583 12.8313 15.8586 12.8313C15.8589 12.8313 15.8592 12.8313 15.8595 12.8313C15.8598 12.8313 15.8602 12.8313 15.8605 12.8313C15.8608 12.8313 15.8611 12.8313 15.8614 12.8313C15.8618 12.8313 15.8621 12.8313 15.8624 12.8313C15.8627 12.8313 15.863 12.8313 15.8633 12.8313C15.8637 12.8313 15.864 12.8313 15.8643 12.8313C15.8646 12.8313 15.8649 12.8313 15.8653 12.8313C15.8656 12.8313 15.8659 12.8313 15.8662 12.8313C15.8665 12.8313 15.8668 12.8313 15.8672 12.8313C15.8675 12.8313 15.8678 12.8313 15.8681 12.8313C15.8684 12.8313 15.8688 12.8313 15.8691 12.8313C15.8694 12.8313 15.8697 12.8313 15.87 12.8313C15.8703 12.8313 15.8707 12.8313 15.871 12.8313C15.8713 12.8313 15.8716 12.8313 15.8719 12.8313C15.8722 12.8313 15.8726 12.8313 15.8729 12.8313C15.8732 12.8313 15.8735 12.8313 15.8738 12.8313C15.8742 12.8313 15.8745 12.8313 15.8748 12.8313C15.8751 12.8313 15.8754 12.8313 15.8757 12.8313C15.8761 12.8313 15.8764 12.8313 15.8767 12.8313C15.877 12.8313 15.8773 12.8313 15.8776 12.8313C15.878 12.8313 15.8783 12.8313 15.8786 12.8313C15.8789 12.8313 15.8792 12.8313 15.8795 12.8313C15.8799 12.8313 15.8802 12.8313 15.8805 12.8313C15.8808 12.8313 15.8811 12.8313 15.8815 12.8313C15.8818 12.8313 15.8821 12.8313 15.8824 12.8313C15.8827 12.8313 15.883 12.8313 15.8834 12.8313C15.8837 12.8313 15.884 12.8313 15.8843 12.8313C15.8846 12.8313 15.8849 12.8313 15.8853 12.8313C15.8856 12.8313 15.8859 12.8313 15.8862 12.8313C15.8865 12.8313 15.8868 12.8313 15.8872 12.8313C15.8875 12.8313 15.8878 12.8313 15.8881 12.8313C15.8884 12.8313 15.8887 12.8313 15.8891 12.8313C15.8894 12.8313 15.8897 12.8313 15.89 12.8313C15.8903 12.8313 15.8906 12.8313 15.891 12.8313C15.8913 12.8313 15.8916 12.8313 15.8919 12.8313C15.8922 12.8313 15.8925 12.8313 15.8929 12.8313C15.8932 12.8313 15.8935 12.8313 15.8938 12.8313C15.8941 12.8313 15.8944 12.8313 15.8948 12.8313C15.8951 12.8313 15.8954 12.8313 15.8957 12.8313C15.896 12.8313 15.8963 12.8313 15.8967 12.8313C15.897 12.8313 15.8973 12.8313 15.8976 12.8313C15.8979 12.8313 15.8982 12.8313 15.8985 12.8313C15.8989 12.8313 15.8992 12.8313 15.8995 12.8313C15.8998 12.8313 15.9001 12.8313 15.9004 12.8313C15.9008 12.8313 15.9011 12.8313 15.9014 12.8313C15.9017 12.8313 15.902 12.8313 15.9023 12.8313C15.9027 12.8313 15.903 12.8313 15.9033 12.8313C15.9036 12.8313 15.9039 12.8313 15.9042 12.8313C15.9046 12.8313 15.9049 12.8313 15.9052 12.8313C15.9055 12.8313 15.9058 12.8313 15.9061 12.8313C15.9064 12.8313 15.9068 12.8313 15.9071 12.8313C15.9074 12.8313 15.9077 12.8313 15.908 12.8313C15.9083 12.8313 15.9087 12.8313 15.909 12.8313C15.9093 12.8313 15.9096 12.8313 15.9099 12.8313C15.9102 12.8313 15.9106 12.8313 15.9109 12.8313C15.9112 12.8313 15.9115 12.8313 15.9118 12.8313C15.9121 12.8313 15.9124 12.8313 15.9128 12.8313C15.9131 12.8313 15.9134 12.8313 15.9137 12.8313C15.914 12.8313 15.9143 12.8313 15.9147 12.8313C15.915 12.8313 15.9153 12.8313 15.9156 12.8313C15.9159 12.8313 15.9162 12.8313 15.9165 12.8313C15.9169 12.8313 15.9172 12.8313 15.9175 12.8313C15.9178 12.8313 15.9181 12.8313 15.9184 12.8313C15.9188 12.8313 15.9191 12.8313 15.9194 12.8313C15.9197 12.8313 15.92 12.8313 15.9203 12.8313C15.9206 12.8313 15.921 12.8313 15.9213 12.8313C15.9216 12.8313 15.9219 12.8313 15.9222 12.8313C15.9225 12.8313 15.9228 12.8313 15.9232 12.8313C15.9235 12.8313 15.9238 12.8313 15.9241 12.8313C15.9244 12.8313 15.9247 12.8313 15.9251 12.8313C15.9254 12.8313 15.9257 12.8313 15.926 12.8313C15.9263 12.8313 15.9266 12.8313 15.9269 12.8313C15.9273 12.8313 15.9276 12.8313 15.9279 12.8313C15.9282 12.8313 15.9285 12.8313 15.9288 12.8313C15.9291 12.8313 15.9295 12.8313 15.9298 12.8313C15.9301 12.8313 15.9304 12.8313 15.9307 12.8313C15.931 12.8313 15.9313 12.8313 15.9317 12.8313C15.932 12.8313 15.9323 12.8313 15.9326 12.8313C15.9329 12.8313 15.9332 12.8313 15.9335 12.8313C15.9339 12.8313 15.9342 12.8313 15.9345 12.8313C15.9348 12.8313 15.9351 12.8313 15.9354 12.8313C15.9357 12.8313 15.9361 12.8313 15.9364 12.8313C15.9367 12.8313 15.937 12.8313 15.9373 12.8313C15.9376 12.8313 15.9379 12.8313 15.9383 12.8313C15.9386 12.8313 15.9389 12.8313 15.9392 12.8313C15.9395 12.8313 15.9398 12.8313 15.9401 12.8313C15.9405 12.8313 15.9408 12.8313 15.9411 12.8313C15.9414 12.8313 15.9417 12.8313 15.942 12.8313C15.9423 12.8313 15.9427 12.8313 15.943 12.8313C15.9433 12.8313 15.9436 12.8313 15.9439 12.8313C15.9442 12.8313 15.9445 12.8313 15.9449 12.8313C15.9452 12.8313 15.9455 12.8313 15.9458 12.8313C15.9461 12.8313 15.9464 12.8313 15.9467 12.8313C15.947 12.8313 15.9474 12.8313 15.9477 12.8313C15.948 12.8313 15.9483 12.8313 15.9486 12.8313C15.9489 12.8313 15.9492 12.8313 15.9496 12.8313C15.9499 12.8313 15.9502 12.8313 15.9505 12.8313C15.9508 12.8313 15.9511 12.8313 15.9514 12.8313C15.9518 12.8313 15.9521 12.8313 15.9524 12.8313C15.9527 12.8313 15.953 12.8313 15.9533 12.8313C15.9536 12.8313 15.9539 12.8313 15.9543 12.8313C15.9546 12.8313 15.9549 12.8313 15.9552 12.8313C15.9555 12.8313 15.9558 12.8313 15.9561 12.8313C15.9565 12.8313 15.9568 12.8313 15.9571 12.8313C15.9574 12.8313 15.9577 12.8313 15.958 12.8313C15.9583 12.8313 15.9586 12.8313 15.959 12.8313C15.9593 12.8313 15.9596 12.8313 15.9599 12.8313C15.9602 12.8313 15.9605 12.8313 15.9608 12.8313C15.9611 12.8313 15.9615 12.8313 15.9618 12.8313C15.9621 12.8313 15.9624 12.8313 15.9627 12.8313C15.963 12.8313 15.9633 12.8313 15.9636 12.8313C15.964 12.8313 15.9643 12.8313 15.9646 12.8313C15.9649 12.8313 15.9652 12.8313 15.9655 12.8313C15.9658 12.8313 15.9662 12.8313 15.9665 12.8313C15.9668 12.8313 15.9671 12.8313 15.9674 12.8313C15.9677 12.8313 15.968 12.8313 15.9683 12.8313C15.9687 12.8313 15.969 12.8313 15.9693 12.8313C15.9696 12.8313 15.9699 12.8313 15.9702 12.8313C15.9705 12.8313 15.9708 12.8313 15.9712 12.8313C15.9715 12.8313 15.9718 12.8313 15.9721 12.8313C15.9724 12.8313 15.9727 12.8313 15.973 12.8313C15.9733 12.8313 15.9736 12.8313 15.974 12.8313C15.9743 12.8313 15.9746 12.8313 15.9749 12.8313C15.9752 12.8313 15.9755 12.8313 15.9758 12.8313C15.9761 12.8313 15.9765 12.8313 15.9768 12.8313C15.9771 12.8313 15.9774 12.8313 15.9777 12.8313C15.978 12.8313 15.9783 12.8313 15.9786 12.8313C15.979 12.8313 15.9793 12.8313 15.9796 12.8313C15.9799 12.8313 15.9802 12.8313 15.9805 12.8313C15.9808 12.8313 15.9811 12.8313 15.9815 12.8313C15.9818 12.8313 15.9821 12.8313 15.9824 12.8313C15.9827 12.8313 15.983 12.8313 15.9833 12.8313C15.9836 12.8313 15.9839 12.8313 15.9843 12.8313C15.9846 12.8313 15.9849 12.8313 15.9852 12.8313C15.9855 12.8313 15.9858 12.8313 15.9861 12.8313C15.9864 12.8313 15.9867 12.8313 15.9871 12.8313C15.9874 12.8313 15.9877 12.8313 15.988 12.8313C15.9883 12.8313 15.9886 12.8313 15.9889 12.8313C15.9892 12.8313 15.9896 12.8313 15.9899 12.8313C15.9902 12.8313 15.9905 12.8313 15.9908 12.8313C15.9911 12.8313 15.9914 12.8313 15.9917 12.8313C15.992 12.8313 15.9924 12.8313 15.9927 12.8313C15.993 12.8313 15.9933 12.8313 15.9936 12.8313C15.9939 12.8313 15.9942 12.8313 15.9945 12.8313C15.9948 12.8313 15.9952 12.8313 15.9955 12.8313C15.9958 12.8313 15.9961 12.8313 15.9964 12.8313C15.9967 12.8313 15.997 12.8313 15.9973 12.8313C15.9976 12.8313 15.998 12.8313 15.9983 12.8313C15.9986 12.8313 15.9989 12.8313 15.9992 12.8313C15.9995 12.8313 15.9998 12.8313 16.0001 12.8313C16.0004 12.8313 16.0008 12.8313 16.0011 12.8313C16.0014 12.8313 16.0017 12.8313 16.002 12.8313C16.0023 12.8313 16.0026 12.8313 16.0029 12.8313C16.0032 12.8313 16.0035 12.8313 16.0039 12.8313C16.0042 12.8313 16.0045 12.8313 16.0048 12.8313C16.0051 12.8313 16.0054 12.8313 16.0057 12.8313C16.006 12.8313 16.0063 12.8313 16.0067 12.8313C16.007 12.8313 16.0073 12.8313 16.0076 12.8313C16.0079 12.8313 16.0082 12.8313 16.0085 12.8313C16.0088 12.8313 16.0091 12.8313 16.0094 12.8313C16.0098 12.8313 16.0101 12.8313 16.0104 12.8313C16.0107 12.8313 16.011 12.8313 16.0113 12.8313C16.0116 12.8313 16.0119 12.8313 16.0122 12.8313C16.0126 12.8313 16.0129 12.8313 16.0132 12.8313C16.0135 12.8313 16.0138 12.8313 16.0141 12.8313C16.0144 12.8313 16.0147 12.8313 16.015 12.8313C16.0153 12.8313 16.0157 12.8313 16.016 12.8313C16.0163 12.8313 16.0166 12.8313 16.0169 12.8313C16.0172 12.8313 16.0175 12.8313 16.0178 12.8313C16.0181 12.8313 16.0184 12.8313 16.0188 12.8313C16.0191 12.8313 16.0194 12.8313 16.0197 12.8313C16.02 12.8313 16.0203 12.8313 16.0206 12.8313C16.0209 12.8313 16.0212 12.8313 16.0215 12.8313C16.0218 12.8313 16.0222 12.8313 16.0225 12.8313C16.0228 12.8313 16.0231 12.8313 16.0234 12.8313C16.0237 12.8313 16.024 12.8313 16.0243 12.8313C16.0246 12.8313 16.0249 12.8313 16.0253 12.8313C16.0256 12.8313 16.0259 12.8313 16.0262 12.8313C16.0265 12.8313 16.0268 12.8313 16.0271 12.8313C16.0274 12.8313 16.0277 12.8313 16.028 12.8313C16.0283 12.8313 16.0287 12.8313 16.029 12.8313C16.0293 12.8313 16.0296 12.8313 16.0299 12.8313C16.0302 12.8313 16.0305 12.8313 16.0308 12.8313C16.0311 12.8313 16.0314 12.8313 16.0317 12.8313C16.0321 12.8313 16.0324 12.8313 16.0327 12.8313C16.033 12.8313 16.0333 12.8313 16.0336 12.8313C16.0339 12.8313 16.0342 12.8313 16.0345 12.8313C16.0348 12.8313 16.0351 12.8313 16.0355 12.8313C16.0358 12.8313 16.0361 12.8313 16.0364 12.8313C16.0367 12.8313 16.037 12.8313 16.0373 12.8313C16.0376 12.8313 16.0379 12.8313 16.0382 12.8313C16.0385 12.8313 16.0389 12.8313 16.0392 12.8313C16.0395 12.8313 16.0398 12.8313 16.0401 12.8313C16.0404 12.8313 16.0407 12.8313 16.041 12.8313C16.0413 12.8313 16.0416 12.8313 16.0419 12.8313C16.0423 12.8313 16.0426 12.8313 16.0429 12.8313C16.0432 12.8313 16.0435 12.8313 16.0438 12.8313C16.0441 12.8313 16.0444 12.8313 16.0447 12.8313C16.045 12.8313 16.0453 12.8313 16.0456 12.8313C16.046 12.8313 16.0463 12.8313 16.0466 12.8313C16.0469 12.8313 16.0472 12.8313 16.0475 12.8313C16.0478 12.8313 16.0481 12.8313 16.0484 12.8313C16.0487 12.8313 16.049 12.8313 16.0493 12.8313C16.0497 12.8313 16.05 12.8313 16.0503 12.8313C16.0506 12.8313 16.0509 12.8313 16.0512 12.8313C16.0515 12.8313 16.0518 12.8313 16.0521 12.8313C16.0524 12.8313 16.0527 12.8313 16.053 12.8313C16.0533 12.8313 16.0537 12.8313 16.054 12.8313C16.0543 12.8313 16.0546 12.8313 16.0549 12.8313C16.0552 12.8313 16.0555 12.8313 16.0558 12.8313C16.0561 12.8313 16.0564 12.8313 16.0567 12.8313C16.057 12.8313 16.0574 12.8313 16.0577 12.8313C16.058 12.8313 16.0583 12.8313 16.0586 12.8313C16.0589 12.8313 16.0592 12.8313 16.0595 12.8313C16.0598 12.8313 16.0601 12.8313 16.0604 12.8313C16.0607 12.8313 16.061 12.8313 16.0614 12.8313C16.0617 12.8313 16.062 12.8313 16.0623 12.8313C16.0626 12.8313 16.0629 12.8313 16.0632 12.8313C16.0635 12.8313 16.0638 12.8313 16.0641 12.8313C16.0644 12.8313 16.0647 12.8313 16.065 12.8313C16.0653 12.8313 16.0657 12.8313 16.066 12.8313C16.0663 12.8313 16.0666 12.8313 16.0669 12.8313C16.0672 12.8313 16.0675 12.8313 16.0678 12.8313C16.0681 12.8313 16.0684 12.8313 16.0687 12.8313C16.069 12.8313 16.0693 12.8313 16.0696 12.8313C16.07 12.8313 16.0703 12.8313 16.0706 12.8313C16.0709 12.8313 16.0712 12.8313 16.0715 12.8313C16.0718 12.8313 16.0721 12.8313 16.0724 12.8313C16.0727 12.8313 16.073 12.8313 16.0733 12.8313C16.0736 12.8313 16.0739 12.8313 16.0743 12.8313C16.0746 12.8313 16.0749 12.8313 16.0752 12.8313C16.0755 12.8313 16.0758 12.8313 16.0761 12.8313C16.0764 12.8313 16.0767 12.8313 16.077 12.8313C16.0773 12.8313 16.0776 12.8313 16.0779 12.8313C16.0782 12.8313 16.0785 12.8313 16.0789 12.8313C16.0792 12.8313 16.0795 12.8313 16.0798 12.8313C16.0801 12.8313 16.0804 12.8313 16.0807 12.8313C16.081 12.8313 16.0813 12.8313 16.0816 12.8313C16.0819 12.8313 16.0822 12.8313 16.0825 12.8313C16.0828 12.8313 16.0831 12.8313 16.0835 12.8313C16.0838 12.8313 16.0841 12.8313 16.0844 12.8313C16.0847 12.8313 16.085 12.8313 16.0853 12.8313C16.0856 12.8313 16.0859 12.8313 16.0862 12.8313C16.0865 12.8313 16.0868 12.8313 16.0871 12.8313C16.0874 12.8313 16.0877 12.8313 16.088 12.8313C16.0884 12.8313 16.0887 12.8313 16.089 12.8313C16.0893 12.8313 16.0896 12.8313 16.0899 12.8313C16.0902 12.8313 16.0905 12.8313 16.0908 12.8313C16.0911 12.8313 16.0914 12.8313 16.0917 12.8313C16.092 12.8313 16.0923 12.8313 16.0926 12.8313C16.0929 12.8313 16.0932 12.8313 16.0936 12.8313C16.0939 12.8313 16.0942 12.8313 16.0945 12.8313C16.0948 12.8313 16.0951 12.8313 16.0954 12.8313C16.0957 12.8313 16.096 12.8313 16.0963 12.8313C16.0966 12.8313 16.0969 12.8313 16.0972 12.8313C16.0975 12.8313 16.0978 12.8313 16.0981 12.8313C16.0984 12.8313 16.0988 12.8313 16.0991 12.8313C16.0994 12.8313 16.0997 12.8313 16.1 12.8313C16.1003 12.8313 16.1006 12.8313 16.1009 12.8313C16.1012 12.8313 16.1015 12.8313 16.1018 12.8313C16.1021 12.8313 16.1024 12.8313 16.1027 12.8313C16.103 12.8313 16.1033 12.8313 16.1036 12.8313C16.1039 12.8313 16.1042 12.8313 16.1046 12.8313C16.1049 12.8313 16.1052 12.8313 16.1055 12.8313V12.2312ZM15.6421 12.2323C15.5031 12.2207 15.3715 12.1977 15.2469 12.1637L15.089 12.7426C15.2509 12.7867 15.4188 12.8158 15.5923 12.8302L15.6421 12.2323ZM15.2794 12.1746C15.1836 12.1362 15.108 12.0861 15.0481 12.0261L14.6238 12.4504C14.7461 12.5727 14.892 12.6658 15.0566 12.7317L15.2794 12.1746ZM15.0637 12.043C15.0481 12.0249 15.0188 11.9744 15.0188 11.8477H14.4187C14.4187 12.0595 14.4675 12.2694 14.6082 12.4335L15.0637 12.043ZM15.0188 11.8477C15.0188 11.7209 15.0481 11.6704 15.0637 11.6523L14.6082 11.2618C14.4675 11.4259 14.4187 11.6358 14.4187 11.8477H15.0188ZM15.0481 11.6692C15.1022 11.6151 15.1688 11.5747 15.2542 11.5491L15.0818 10.9744C14.9067 11.0269 14.752 11.1167 14.6238 11.2449L15.0481 11.6692ZM15.2794 11.5403C15.3703 11.5039 15.4752 11.4836 15.5977 11.4836V10.8836C15.4076 10.8836 15.226 10.9154 15.0566 10.9832L15.2794 11.5403ZM15.6207 11.4827C15.7823 11.4703 15.9439 11.4641 16.1055 11.4641V10.8641C15.9285 10.8641 15.7516 10.8709 15.5746 10.8845L15.6207 11.4827ZM16.1055 11.4641H26.0664V10.8641H16.1055V11.4641ZM26.0664 11.4641C26.5983 11.4641 26.8561 11.5701 26.9608 11.6817L27.3985 11.2714C27.1126 10.9664 26.6283 10.8641 26.0664 10.8641V11.4641ZM26.9608 11.6817C27.0771 11.8058 27.1727 12.0613 27.1727 12.5312H27.7727C27.7727 12.0117 27.6729 11.564 27.3985 11.2714L26.9608 11.6817ZM27.1727 12.5312V20.6953H27.7727V12.5312H27.1727ZM27.1727 20.6953C27.1727 21.0131 27.0609 21.2321 26.8451 21.3916L27.2018 21.8741C27.5849 21.5908 27.7727 21.1848 27.7727 20.6953H27.1727ZM26.8521 21.3865C26.585 21.5723 26.3047 21.6916 26.0098 21.7484L26.1231 22.3376C26.5052 22.2641 26.8629 22.1099 27.1948 21.8791L26.8521 21.3865ZM26.0087 21.7486C24.0862 22.1253 22.2227 22.4434 20.4182 22.7031L20.5037 23.2969C22.3189 23.0358 24.1924 22.7159 26.1241 22.3374L26.0087 21.7486ZM20.4161 22.7034C18.6208 22.9746 16.8324 23.1102 15.0508 23.1102V23.7102C16.8629 23.7102 18.6813 23.5723 20.5058 23.2966L20.4161 22.7034ZM15.0508 23.1102C12.6452 23.1102 10.5394 22.9031 8.73046 22.4926L8.59767 23.0777C10.4606 23.5005 12.6126 23.7102 15.0508 23.7102V23.1102ZM8.73091 22.4927C6.93895 22.0831 5.45547 21.4399 4.27127 20.5707L3.91623 21.0543C5.17994 21.982 6.74334 22.6539 8.59722 23.0776L8.73091 22.4927ZM4.27293 20.5719C3.09128 19.6919 2.19932 18.5681 1.59487 17.1955L1.04576 17.4373C1.69131 18.9033 2.6483 20.1101 3.91457 21.0531L4.27293 20.5719ZM1.59619 17.1985C1.00417 15.813 0.702344 14.1236 0.702344 12.1211H0.102344C0.102344 14.1811 0.412494 15.9553 1.04444 17.4343L1.59619 17.1985ZM0.702344 12.1211C0.702344 10.1185 1.00421 8.43606 1.59579 7.0641L1.04483 6.82653C0.412454 8.2931 0.102344 10.0612 0.102344 12.1211H0.702344ZM1.59527 7.0653C2.19976 5.68002 3.09126 4.55724 4.27127 3.69106L3.91623 3.20738C2.64832 4.13807 1.69087 5.34602 1.04535 6.82533L1.59527 7.0653ZM4.27293 3.68983C5.45681 2.80822 6.9397 2.15891 8.73091 1.74949L8.59722 1.16457C6.74259 1.58849 5.1786 2.2673 3.91457 3.20861L4.27293 3.68983ZM8.73046 1.74959C10.5394 1.33904 12.6452 1.13203 15.0508 1.13203V0.532031C12.6126 0.532031 10.4606 0.741688 8.59767 1.16447L8.73046 1.74959ZM15.0508 1.13203C16.7249 1.13203 18.3461 1.28656 19.9147 1.59514L20.0306 1.00642C18.4221 0.690004 16.762 0.532031 15.0508 0.532031V1.13203ZM19.9171 1.59559C21.4836 1.89092 23.0785 2.37293 24.702 3.04294L24.9309 2.48831C23.2731 1.80415 21.6388 1.30961 20.0282 1.00597L19.9171 1.59559ZM24.6962 3.04047C24.868 3.11567 24.9626 3.19976 25.0125 3.27825L25.5187 2.95612C25.3864 2.74816 25.1814 2.59787 24.9367 2.49078L24.6962 3.04047ZM25.0199 3.28923C25.0836 3.3803 25.1023 3.45163 25.1023 3.50781H25.7023C25.7023 3.30357 25.6299 3.11449 25.5114 2.94515L25.0199 3.28923ZM25.1023 3.50781C25.1023 3.5793 25.0791 3.64112 25.0144 3.70584L25.4387 4.1301C25.6084 3.96044 25.7023 3.74883 25.7023 3.50781H25.1023ZM25.0144 3.70584C24.9594 3.76087 24.8888 3.79375 24.7773 3.79375V4.39375C25.0305 4.39375 25.2594 4.30944 25.4387 4.1301L25.0144 3.70584ZM24.7773 3.79375C24.7911 3.79375 24.7943 3.7954 24.7795 3.79266C24.7672 3.79038 24.7484 3.78619 24.7219 3.77921C24.6688 3.76525 24.5959 3.74307 24.5011 3.71149L24.3114 4.2807C24.412 4.31422 24.4985 4.34087 24.5692 4.35946C24.6302 4.37553 24.7082 4.39375 24.7773 4.39375V3.79375ZM24.5218 3.71924C23.0056 3.08638 21.4366 2.61176 19.8153 2.2954L19.7004 2.88429C21.2821 3.19293 22.8121 3.6558 24.2907 4.27295L24.5218 3.71924ZM19.8153 2.2954C18.1959 1.97943 16.6077 1.82109 15.0508 1.82109V2.42109C16.5668 2.42109 18.1166 2.57526 19.7004 2.88429L19.8153 2.2954ZM15.0508 1.82109C12.7177 1.82109 10.7139 2.01755 9.0438 2.41519L9.18277 2.99887C10.7939 2.61526 12.7484 2.42109 15.0508 2.42109V1.82109ZM9.04599 2.41467C7.37355 2.7996 5.98302 3.41397 4.88613 4.2671L5.25449 4.74071C6.26698 3.95322 7.57176 3.36967 9.18057 2.99939L9.04599 2.41467ZM4.88654 4.26678C3.8002 5.1087 3.00572 6.18939 2.50486 7.50246L3.06546 7.71629C3.52814 6.50332 4.25709 5.5137 5.25408 4.74103L4.88654 4.26678ZM2.50523 7.50149C2.00676 8.7948 1.7625 10.3373 1.7625 12.1211H2.3625C2.3625 10.3893 2.60001 8.92395 3.06508 7.71726L2.50523 7.50149ZM1.7625 12.1211C1.7625 13.905 2.0068 15.4536 2.50486 16.7593L3.06546 16.5454C2.59997 15.3251 2.3625 13.8528 2.3625 12.1211H1.7625ZM2.50523 16.7602C3.00617 18.06 3.80023 19.1395 4.88471 19.9935L5.25592 19.5221C4.25706 18.7355 3.52768 17.7447 3.06508 16.5445L2.50523 16.7602ZM4.88797 19.996C5.98382 20.8348 7.37287 21.4487 9.0438 21.8465L9.18277 21.2628C7.57245 20.8794 6.26618 20.2954 5.25266 19.5196L4.88797 19.996ZM9.04599 21.847C10.7152 22.2312 12.7182 22.4211 15.0508 22.4211V21.8211C12.7479 21.8211 10.7926 21.6334 9.18057 21.2623L9.04599 21.847ZM34.6211 22.2578L34.9199 22.285L34.9201 22.2827L34.6211 22.2578ZM34.5234 22.6484L34.2493 22.5266L34.2457 22.5347L34.2425 22.5431L34.5234 22.6484ZM34.5039 8.39062L34.2193 8.48549L34.2216 8.49249L34.2243 8.49936L34.5039 8.39062ZM33.1172 2.88281L33.3294 3.09505L33.336 3.08799L33.1172 2.88281ZM34.6211 2.88281L34.4089 3.09505L34.4159 3.10167L34.6211 2.88281ZM34.6211 4.34766L34.4235 4.12188L34.6211 4.34766ZM34.3406 21.7695C34.3406 21.9311 34.3344 22.0856 34.3221 22.2329L34.9201 22.2827C34.9338 22.1176 34.9406 21.9465 34.9406 21.7695H34.3406ZM34.3223 22.2307C34.3119 22.3451 34.2865 22.4428 34.2493 22.5266L34.7976 22.7703C34.8645 22.6197 34.9042 22.457 34.9199 22.285L34.3223 22.2307ZM34.2425 22.5431C34.2291 22.5791 34.204 22.6139 34.1496 22.6479L34.4676 23.1567C34.6215 23.0605 34.7397 22.9261 34.8043 22.7538L34.2425 22.5431ZM34.1496 22.6479C34.1135 22.6705 34.0287 22.7 33.8594 22.7V23.3C34.0807 23.3 34.2954 23.2644 34.4676 23.1567L34.1496 22.6479ZM33.8594 22.7C33.5397 22.7 33.492 22.6071 33.4782 22.5681L32.9124 22.7678C33.0549 23.1716 33.4498 23.3 33.8594 23.3V22.7ZM33.4782 22.5681C33.4162 22.3923 33.3781 22.1312 33.3781 21.7695H32.7781C32.7781 22.1631 32.8182 22.5009 32.9124 22.7678L33.4782 22.5681ZM33.3781 21.7695V9.23047H32.7781V21.7695H33.3781ZM33.3781 9.23047C33.3781 8.93172 33.4201 8.69052 33.4944 8.49936L32.9352 8.28189C32.8273 8.55948 32.7781 8.87818 32.7781 9.23047H33.3781ZM33.4944 8.49936C33.5209 8.43144 33.5917 8.33906 33.8984 8.33906V7.73906C33.476 7.73906 33.0911 7.88106 32.9352 8.28189L33.4944 8.49936ZM33.8984 8.33906C34.0282 8.33906 34.1027 8.36283 34.1433 8.38639C34.1771 8.406 34.2019 8.43322 34.2193 8.48549L34.7885 8.29576C34.7278 8.11365 34.6126 7.96509 34.4446 7.86752C34.2833 7.77389 34.0942 7.73906 33.8984 7.73906V8.33906ZM34.2243 8.49936C34.2997 8.69314 34.3406 8.92218 34.3406 9.19141H34.9406C34.9406 8.86167 34.8904 8.55686 34.7835 8.28189L34.2243 8.49936ZM34.3406 9.19141V21.7695H34.9406V9.19141H34.3406ZM33.1242 3.625C33.1242 3.39769 33.1953 3.22898 33.3293 3.09494L32.9051 2.67068C32.6485 2.92727 32.5242 3.25335 32.5242 3.625H33.1242ZM33.336 3.08799C33.4716 2.94339 33.6383 2.87031 33.8594 2.87031V2.27031C33.4815 2.27031 33.1534 2.40556 32.8983 2.67763L33.336 3.08799ZM33.8594 2.87031C34.0808 2.87031 34.2579 2.9439 34.409 3.09494L34.8332 2.67068C34.5676 2.40505 34.2369 2.27031 33.8594 2.27031V2.87031ZM34.4159 3.10167C34.5605 3.23724 34.6336 3.4039 34.6336 3.625H35.2336C35.2336 3.24714 35.0983 2.91901 34.8263 2.66395L34.4159 3.10167ZM34.6336 3.625C34.6336 3.84596 34.561 4.00161 34.4235 4.12188L34.8186 4.57343C35.0979 4.32911 35.2336 4.003 35.2336 3.625H34.6336ZM34.4235 4.12188C34.2746 4.25225 34.0926 4.32109 33.8594 4.32109V4.92109C34.2251 4.92109 34.551 4.80765 34.8186 4.57343L34.4235 4.12188ZM33.8594 4.32109C33.6259 4.32109 33.4548 4.25238 33.3219 4.12834L32.9125 4.56697C33.1702 4.80752 33.4938 4.92109 33.8594 4.92109V4.32109ZM33.3219 4.12834C33.195 4.00995 33.1242 3.85244 33.1242 3.625H32.5242C32.5242 3.99652 32.6487 4.32078 32.9125 4.56697L33.3219 4.12834ZM50.1289 8.48828L49.9031 8.68583L49.9163 8.70088L49.9314 8.71405L50.1289 8.48828ZM43.2148 9.26953V8.96953H42.9148V9.26953H43.2148ZM44.2891 21.2227L44.0769 21.4348L44.0811 21.4389L44.2891 21.2227ZM45.4609 21.8867L45.3841 22.1769L45.3941 22.1792L45.4609 21.8867ZM48.7422 21.7109L48.6382 21.4295L48.7422 21.7109ZM50.8125 20.7539L50.6783 20.4855L50.6713 20.4892L50.8125 20.7539ZM51.6523 20.793L51.4266 20.9905L51.4397 21.0056L51.4548 21.0187L51.6523 20.793ZM51.3789 21.7695L51.2353 21.5062L51.2348 21.5064L51.3789 21.7695ZM49.9141 22.4922L49.7969 22.216L49.7938 22.2173L49.9141 22.4922ZM48.7422 22.9219L48.6598 22.6334L48.657 22.6342L48.7422 22.9219ZM47.707 23.1367L47.6726 22.8387L47.707 23.1367ZM44.6602 22.9023L44.5671 23.1876L44.5689 23.1881L44.6602 22.9023ZM43.0781 21.9648L42.8659 22.1771L42.8723 22.1831L43.0781 21.9648ZM42.0234 20.2266L41.7393 20.323L41.7415 20.3291L42.0234 20.2266ZM41.6523 9.26953H41.9523V8.96953H41.6523V9.26953ZM39.5234 9.13281L39.2977 9.33036L39.3042 9.33788L39.3113 9.34494L39.5234 9.13281ZM39.5234 8.48828L39.7356 8.70041L39.7426 8.69335L39.7492 8.68583L39.5234 8.48828ZM41.6523 8.33203V8.63203H41.9523V8.33203H41.6523ZM41.9062 2.6875L42.0635 2.943L42.0704 2.93876L42.077 2.93416L41.9062 2.6875ZM42.9805 2.6875L42.7905 2.91969L42.8019 2.92898L42.8141 2.93712L42.9805 2.6875ZM43.2148 8.33203H42.9148V8.63203H43.2148V8.33203ZM49.6992 8.63203C49.8448 8.63203 49.8894 8.6701 49.9031 8.68583L50.3547 8.29073C50.1862 8.09813 49.9443 8.03203 49.6992 8.03203V8.63203ZM49.9314 8.71405C49.9834 8.75958 49.9852 8.78596 49.9852 8.80078H50.5852C50.5852 8.58123 50.4828 8.39928 50.3265 8.26251L49.9314 8.71405ZM49.9852 8.80078C49.9852 8.81916 49.9799 8.85753 49.9168 8.92068L50.341 9.34494C50.4862 9.19977 50.5852 9.01678 50.5852 8.80078H49.9852ZM49.9168 8.92068C49.9051 8.93233 49.8553 8.96953 49.6992 8.96953V9.56953C49.9337 9.56953 50.1704 9.51559 50.341 9.34494L49.9168 8.92068ZM49.6992 8.96953H43.2148V9.56953H49.6992V8.96953ZM42.9148 9.26953V17.5508H43.5148V9.26953H42.9148ZM42.9148 17.5508C42.9148 18.5181 43.0138 19.322 43.2232 19.9503L43.7924 19.7606C43.6112 19.2171 43.5148 18.4845 43.5148 17.5508H42.9148ZM43.2232 19.9503C43.4284 20.5661 43.7092 21.0671 44.0769 21.4348L44.5012 21.0105C44.2179 20.7272 43.9778 20.3168 43.7924 19.7606L43.2232 19.9503ZM44.0811 21.4389C44.4554 21.7988 44.8909 22.0462 45.3842 22.1767L45.5377 21.5967C45.1456 21.4929 44.7998 21.2975 44.497 21.0064L44.0811 21.4389ZM45.3941 22.1792C45.8735 22.2888 46.3779 22.343 46.9062 22.343V21.743C46.419 21.743 45.9598 21.693 45.5278 21.5943L45.3941 22.1792ZM46.9062 22.343C47.5675 22.343 48.2147 22.2257 48.8462 21.9923L48.6382 21.4295C48.0718 21.6389 47.495 21.743 46.9062 21.743V22.343ZM48.8462 21.9923C49.4617 21.7649 50.1646 21.4394 50.9537 21.0186L50.6713 20.4892C49.8979 20.9017 49.2206 21.2143 48.6382 21.4295L48.8462 21.9923ZM50.9467 21.0222C51.0703 20.9604 51.1742 20.9367 51.2617 20.9367V20.3367C51.0628 20.3367 50.8672 20.3911 50.6783 20.4856L50.9467 21.0222ZM51.2617 20.9367C51.3655 20.9367 51.4049 20.9657 51.4266 20.9905L51.8781 20.5954C51.7175 20.4119 51.4965 20.3367 51.2617 20.3367V20.9367ZM51.4548 21.0187C51.4913 21.0507 51.5086 21.0844 51.5086 21.1445H52.1086C52.1086 20.9182 52.0217 20.7175 51.8499 20.5672L51.4548 21.0187ZM51.5086 21.1445C51.5086 21.266 51.454 21.3868 51.2353 21.5062L51.5226 22.0329C51.8767 21.8397 52.1086 21.5439 52.1086 21.1445H51.5086ZM51.2348 21.5064C50.694 21.8026 50.2149 22.0387 49.7969 22.216L50.0312 22.7684C50.4726 22.5811 50.9701 22.3355 51.523 22.0327L51.2348 21.5064ZM49.7938 22.2173C49.3871 22.3953 49.0092 22.5336 48.6598 22.6334L48.8246 23.2103C49.2043 23.1018 49.6077 22.9537 50.0343 22.767L49.7938 22.2173ZM48.657 22.6342C48.3208 22.7338 47.9927 22.8018 47.6726 22.8387L47.7414 23.4347C48.0984 23.3935 48.4605 23.3182 48.8274 23.2095L48.657 22.6342ZM47.6726 22.8387C47.3467 22.8763 47.0001 22.8953 46.6328 22.8953V23.4953C47.0207 23.4953 47.3903 23.4753 47.7414 23.4347L47.6726 22.8387ZM46.6328 22.8953C45.9577 22.8953 45.3312 22.8016 44.7514 22.6165L44.5689 23.1881C45.2131 23.3937 45.9016 23.4953 46.6328 23.4953V22.8953ZM44.7532 22.6171C44.196 22.4355 43.7073 22.1457 43.2839 21.7466L42.8723 22.1831C43.3604 22.6434 43.9264 22.9786 44.5672 23.1876L44.7532 22.6171ZM43.2903 21.7527C42.8845 21.347 42.554 20.8078 42.3054 20.124L41.7415 20.3291C42.0137 21.0777 42.3863 21.6973 42.866 22.177L43.2903 21.7527ZM42.3075 20.1302C42.0738 19.4412 41.9523 18.5839 41.9523 17.5508H41.3523C41.3523 18.627 41.4783 19.5536 41.7393 20.323L42.3075 20.1302ZM41.9523 17.5508V9.26953H41.3523V17.5508H41.9523ZM41.6523 8.96953H39.9336V9.56953H41.6523V8.96953ZM39.9336 8.96953C39.7975 8.96953 39.7506 8.93572 39.7356 8.92068L39.3113 9.34494C39.4786 9.51219 39.7051 9.56953 39.9336 9.56953V8.96953ZM39.7492 8.93526C39.6968 8.87534 39.6867 8.83253 39.6867 8.80078H39.0867C39.0867 9.00341 39.1678 9.18196 39.2977 9.33036L39.7492 8.93526ZM39.6867 8.80078C39.6867 8.77149 39.6945 8.74148 39.7356 8.70041L39.3113 8.27615C39.1701 8.41738 39.0867 8.5957 39.0867 8.80078H39.6867ZM39.7492 8.68583C39.7667 8.66585 39.8087 8.63203 39.9336 8.63203V8.03203C39.6939 8.03203 39.4625 8.10237 39.2977 8.29073L39.7492 8.68583ZM39.9336 8.63203H41.6523V8.03203H39.9336V8.63203ZM41.9523 8.33203V3.46875H41.3523V8.33203H41.9523ZM41.9523 3.46875C41.9523 3.27727 41.9722 3.14261 42.0011 3.05366C42.0297 2.96568 42.059 2.94575 42.0635 2.943L41.749 2.432C41.5842 2.53341 41.4866 2.69578 41.4305 2.86821C41.3748 3.03968 41.3523 3.24357 41.3523 3.46875H41.9523ZM42.077 2.93416C42.2028 2.84704 42.32 2.81172 42.4336 2.81172V2.21172C42.1826 2.21172 41.9482 2.29359 41.7355 2.44084L42.077 2.93416ZM42.4336 2.81172C42.5998 2.81172 42.7109 2.85454 42.7905 2.91969L43.1704 2.45531C42.9636 2.28609 42.7101 2.21172 42.4336 2.21172V2.81172ZM42.8141 2.93712C42.8142 2.93724 42.8157 2.93824 42.8184 2.94103C42.8211 2.94389 42.8254 2.94893 42.8307 2.95715C42.8415 2.97404 42.8555 3.00239 42.8689 3.04714C42.8964 3.13869 42.9148 3.27583 42.9148 3.46875H43.5148C43.5148 3.245 43.4943 3.0436 43.4436 2.87473C43.3932 2.70686 43.3042 2.54279 43.1469 2.43788L42.8141 2.93712ZM42.9148 3.46875V8.33203H43.5148V3.46875H42.9148ZM43.2148 8.63203H49.6992V8.03203H43.2148V8.63203ZM75.0898 2.45312L75.1723 2.74158L75.1816 2.73891L75.1907 2.73565L75.0898 2.45312ZM63.4688 2.53125V2.23125H63.1687V2.53125H63.4688ZM63.332 22.5703L63.0586 22.446L63.0535 22.4589L63.332 22.5703ZM61.9648 22.5703L61.6815 22.6689L61.6841 22.6765L61.6872 22.6839L61.9648 22.5703ZM61.8086 2.53125H62.1086V2.23125H61.8086V2.53125ZM50.1289 2.45312L50.034 2.73773L50.045 2.74137L50.0561 2.74417L50.1289 2.45312ZM49.9727 1.53516L50.1848 1.74729L50.1919 1.74023L50.1984 1.73271L49.9727 1.53516ZM50.3047 1.32031L50.2257 1.03079L50.2185 1.03296L50.3047 1.32031ZM50.7734 1.26172V1.56172H50.7841L50.7948 1.56096L50.7734 1.26172ZM74.5039 1.26172L74.4809 1.56084L74.4924 1.56172H74.5039V1.26172ZM74.9336 1.32031L74.8387 1.60505L74.8474 1.60766L74.9336 1.32031ZM75.2461 1.53516L75.0061 1.71516L75.012 1.72297L75.0183 1.73039L75.2461 1.53516ZM75.0633 1.96484C75.0633 2.06301 75.0457 2.11331 75.0332 2.13565C75.0245 2.1512 75.0146 2.16143 74.9889 2.1706L75.1907 2.73565C75.3474 2.67971 75.4742 2.57601 75.5567 2.42881C75.6353 2.28839 75.6633 2.1271 75.6633 1.96484H75.0633ZM75.0074 2.16467C74.8619 2.20625 74.658 2.23125 74.3867 2.23125V2.83125C74.6884 2.83125 74.9532 2.80416 75.1723 2.74158L75.0074 2.16467ZM74.3867 2.23125H63.4688V2.83125H74.3867V2.23125ZM63.1687 2.53125V21.5547H63.7688V2.53125H63.1687ZM63.1687 21.5547C63.1687 21.7434 63.1625 21.918 63.1501 22.0786L63.7483 22.1246C63.762 21.9466 63.7688 21.7566 63.7688 21.5547H63.1687ZM63.1501 22.0786C63.1396 22.2156 63.1084 22.3373 63.0589 22.4462L63.6051 22.6945C63.6859 22.5169 63.7328 22.326 63.7483 22.1246L63.1501 22.0786ZM63.0535 22.4589C63.0202 22.5421 62.9744 22.6002 62.9177 22.6428L63.2777 23.1228C63.4292 23.0091 63.5397 22.8589 63.6106 22.6817L63.0535 22.4589ZM62.9177 22.6428C62.8856 22.6668 62.8097 22.7 62.6484 22.7V23.3C62.8778 23.3 63.1014 23.255 63.2777 23.1228L62.9177 22.6428ZM62.6484 22.7C62.5212 22.7 62.4385 22.6733 62.3833 22.6386C62.3301 22.6051 62.2811 22.551 62.2425 22.4567L61.6872 22.6839C61.7658 22.8761 61.8893 23.0368 62.064 23.1466C62.2367 23.2551 62.4372 23.3 62.6484 23.3V22.7ZM62.2482 22.4718C62.1569 22.2094 62.1086 21.905 62.1086 21.5547H61.5086C61.5086 21.9596 61.5644 22.3323 61.6815 22.6689L62.2482 22.4718ZM62.1086 21.5547V2.53125H61.5086V21.5547H62.1086ZM61.8086 2.23125H50.8711V2.83125H61.8086V2.23125ZM50.8711 2.23125C50.6016 2.23125 50.3798 2.20662 50.2017 2.16208L50.0561 2.74417C50.2947 2.8038 50.5677 2.83125 50.8711 2.83125V2.23125ZM50.2238 2.16852C50.1879 2.15655 50.1752 2.14247 50.1664 2.12788C50.1541 2.10736 50.1359 2.0601 50.1359 1.96484H49.5359C49.5359 2.13 49.5666 2.29434 49.6519 2.43658C49.7408 2.58474 49.8746 2.6846 50.034 2.73773L50.2238 2.16852ZM50.1359 1.96484C50.1359 1.80875 50.1731 1.75894 50.1848 1.74729L49.7605 1.32302C49.5899 1.49367 49.5359 1.73031 49.5359 1.96484H50.1359ZM50.1984 1.73271C50.2531 1.67019 50.3158 1.6302 50.3909 1.60766L50.2185 1.03296C50.0332 1.08855 49.8745 1.19179 49.7469 1.3376L50.1984 1.73271ZM50.3836 1.60974C50.4978 1.5786 50.6272 1.56172 50.7734 1.56172V0.961719C50.5812 0.961719 50.398 0.983904 50.2258 1.03088L50.3836 1.60974ZM50.7948 1.56096C50.9711 1.54836 51.1332 1.54219 51.2812 1.54219V0.942187C51.1168 0.942187 50.9403 0.949035 50.7521 0.962481L50.7948 1.56096ZM51.2812 1.54219H73.957V0.942187H51.2812V1.54219ZM73.957 1.54219C74.1458 1.54219 74.3203 1.54848 74.4809 1.56084L74.5269 0.962602C74.349 0.948913 74.1589 0.942187 73.957 0.942187V1.54219ZM74.5039 1.56172C74.652 1.56172 74.7611 1.57905 74.8387 1.60492L75.0285 1.03571C74.8717 0.983454 74.6943 0.961719 74.5039 0.961719V1.56172ZM74.8474 1.60766C74.9191 1.62916 74.9682 1.66465 75.0061 1.71516L75.4861 1.35516C75.3677 1.19733 75.2085 1.08959 75.0198 1.03296L74.8474 1.60766ZM75.0183 1.73039C75.0283 1.74208 75.0633 1.79917 75.0633 1.96484H75.6633C75.6633 1.73989 75.6201 1.51052 75.4739 1.33992L75.0183 1.73039ZM75.5781 20.207L75.3355 20.3835L75.339 20.3882L75.5781 20.207ZM78.957 21.8672L78.9077 22.1632L78.9132 22.164L78.957 21.8672ZM84.6016 21.8086L84.6537 22.1041L84.6579 22.1033L84.6016 21.8086ZM88.6055 20.3828L88.7652 20.6369L88.7702 20.6335L88.6055 20.3828ZM89.7383 19.5234L89.9406 19.745L90.0383 19.6558V19.5234H89.7383ZM89.7383 15.5977H90.0383V15.3367L89.7799 15.3006L89.7383 15.5977ZM85.6953 15.0898L85.6591 15.3877L85.6619 15.388L85.6953 15.0898ZM78.7812 15.0117L78.7375 14.7149L78.7367 14.715L78.7812 15.0117ZM75.5391 16.7891L75.7969 16.9424L75.7987 16.9394L75.5391 16.7891ZM80.207 8.89844L80.185 8.59925L80.207 8.89844ZM77.9219 9.15234L77.8735 8.85626L77.8726 8.85643L77.9219 9.15234ZM75.207 9.83594V10.1359H75.2594L75.3086 10.1182L75.207 9.83594ZM74.8164 8.72266L74.6822 8.45433L74.8164 8.72266ZM75.5391 8.46875L75.4529 8.18139L75.4501 8.18223L75.5391 8.46875ZM77.1602 8.11719L77.2104 8.41299L77.2148 8.41217L77.1602 8.11719ZM79.7578 7.78516L79.7317 7.4863L79.7313 7.48633L79.7578 7.78516ZM85.4023 7.78516L85.3607 8.08232L85.3666 8.08302L85.4023 7.78516ZM87.2383 8.23438L87.1302 8.51422L87.1323 8.51502L87.2383 8.23438ZM88.8594 9.15234L88.6735 9.38783L88.6765 9.39013L88.8594 9.15234ZM90.1484 10.6758L89.8869 10.8229L89.8907 10.8293L90.1484 10.6758ZM91.0078 12.9219L90.7158 12.9906L90.716 12.9916L91.0078 12.9219ZM91.1836 22.5508L90.9102 22.4265L90.9051 22.4394L91.1836 22.5508ZM90.9492 22.8828L91.1292 23.1228L91.1383 23.116L91.1468 23.1086L90.9492 22.8828ZM89.8945 22.5898L89.614 22.6967L89.6188 22.708L89.8945 22.5898ZM89.7383 20.207H90.0383V19.3518L89.504 20.0196L89.7383 20.207ZM87.1406 22.1992L87.2635 22.4729L87.2681 22.4708L87.1406 22.1992ZM84.8555 22.9219L84.916 23.2157L84.9201 23.2148L84.8555 22.9219ZM78.5078 22.9414L78.4572 23.2371L78.4579 23.2372L78.5078 22.9414ZM75.9102 22.1406L75.776 22.409L75.7779 22.4099L75.9102 22.1406ZM74.1719 20.7344L73.9273 20.9083L73.9319 20.9144L74.1719 20.7344ZM74.1328 16.2617L73.8793 16.1013L73.8784 16.1027L74.1328 16.2617ZM75.793 14.7383L75.9349 15.0026L75.9387 15.0005L75.793 14.7383ZM78.2539 13.918L78.2052 13.6219L78.2046 13.6221L78.2539 13.918ZM83.7812 13.7812L83.7575 14.0804L83.7625 14.0807L83.7812 13.7812ZM86.1445 14.0352L86.0977 14.3315L86.1028 14.3322L86.1445 14.0352ZM88.1758 14.4453L88.0958 14.7345L88.103 14.7364L88.1758 14.4453ZM89.7383 15.0117L89.5975 15.2767L90.0383 15.5108V15.0117H89.7383ZM87.8047 9.93359L87.6205 10.1704L87.6238 10.173L87.8047 9.93359ZM85.7734 9.03516L85.7126 9.32899L85.7185 9.33007L85.7734 9.03516ZM74.8094 18.625C74.8094 19.3019 74.9795 19.8939 75.3355 20.3835L75.8207 20.0306C75.5518 19.6608 75.4094 19.1981 75.4094 18.625H74.8094ZM75.339 20.3882C75.6982 20.8623 76.188 21.242 76.7966 21.5325L77.055 20.991C76.5177 20.7345 76.1091 20.4111 75.8173 20.0259L75.339 20.3882ZM76.7966 21.5325C77.4002 21.8205 78.1053 22.0294 78.9077 22.1631L79.0064 21.5713C78.2463 21.4446 77.5972 21.2498 77.055 20.991L76.7966 21.5325ZM78.9132 22.164C79.7242 22.2836 80.6049 22.343 81.5547 22.343V21.743C80.6295 21.743 79.7784 21.6851 79.0008 21.5704L78.9132 22.164ZM81.5547 22.343C82.7135 22.343 83.7471 22.264 84.6537 22.104L84.5494 21.5132C83.6851 21.6657 82.6875 21.743 81.5547 21.743V22.343ZM84.6579 22.1033C85.5556 21.9316 86.3472 21.7193 87.0305 21.4647L86.821 20.9025C86.1763 21.1427 85.4184 21.347 84.5452 21.5139L84.6579 22.1033ZM87.0305 21.4647C87.7081 21.2123 88.2876 20.937 88.7651 20.6368L88.4458 20.1288C88.0119 20.4016 87.4716 20.6601 86.821 20.9025L87.0305 21.4647ZM88.7702 20.6335C89.235 20.3281 89.6262 20.032 89.9406 19.745L89.536 19.3019C89.2514 19.5617 88.8874 19.8386 88.4407 20.1321L88.7702 20.6335ZM90.0383 19.5234V15.5977H89.4383V19.5234H90.0383ZM89.7799 15.3006C88.4749 15.1179 87.1245 14.9482 85.7287 14.7917L85.6619 15.388C87.0526 15.5439 88.3975 15.7129 89.6967 15.8948L89.7799 15.3006ZM85.7315 14.792C84.3261 14.6213 82.9078 14.5359 81.4766 14.5359V15.1359C82.8839 15.1359 84.278 15.2199 85.6591 15.3877L85.7315 14.792ZM81.4766 14.5359C80.4627 14.5359 79.5493 14.5952 78.7375 14.7149L78.825 15.3085C79.6018 15.1939 80.4852 15.1359 81.4766 15.1359V14.5359ZM78.7367 14.715C77.9312 14.8359 77.2333 15.0458 76.6499 15.3514L76.9283 15.8829C77.4386 15.6156 78.0688 15.4219 78.8258 15.3084L78.7367 14.715ZM76.6499 15.3514C76.0569 15.662 75.5966 16.0909 75.2794 16.6388L75.7987 16.9394C76.0545 16.4976 76.4275 16.1453 76.9283 15.8829L76.6499 15.3514ZM75.2812 16.6357C74.9596 17.1766 74.8094 17.8458 74.8094 18.625H75.4094C75.4094 17.9198 75.5456 17.3651 75.7969 16.9424L75.2812 16.6357ZM83.4102 8.50078C82.1555 8.50078 81.08 8.53344 80.185 8.59925L80.229 9.19763C81.1049 9.13323 82.1648 9.10078 83.4102 9.10078V8.50078ZM80.185 8.59925C79.2938 8.66478 78.5228 8.75026 77.8735 8.85626L77.9702 9.44842C78.597 9.3461 79.3494 9.26231 80.229 9.19763L80.185 8.59925ZM77.8726 8.85643C77.2414 8.96162 76.7035 9.07425 76.2609 9.19495L76.4188 9.7738C76.8356 9.66013 77.3524 9.5514 77.9712 9.44826L77.8726 8.85643ZM76.2609 9.19495C75.8256 9.31366 75.4402 9.43316 75.1054 9.55367L75.3086 10.1182C75.6249 10.0043 75.9947 9.88946 76.4188 9.7738L76.2609 9.19495ZM75.207 9.53594C75.1651 9.53594 75.0995 9.51951 75.0078 9.40951L74.5469 9.79362C74.7156 9.99611 74.9365 10.1359 75.207 10.1359V9.53594ZM75.0078 9.40951C74.917 9.30052 74.882 9.19767 74.882 9.09375H74.282C74.282 9.35442 74.3773 9.5901 74.5469 9.79362L75.0078 9.40951ZM74.882 9.09375C74.882 9.05674 74.89 9.04098 74.8943 9.03422C74.8989 9.02691 74.9118 9.01036 74.9506 8.99098L74.6822 8.45433C74.5647 8.51308 74.4605 8.59744 74.387 8.71383C74.3131 8.83076 74.282 8.96149 74.282 9.09375H74.882ZM74.9506 8.99098C75.0286 8.95198 75.2443 8.87435 75.628 8.75527L75.4501 8.18223C75.0786 8.29753 74.8126 8.38917 74.6822 8.45433L74.9506 8.99098ZM75.6253 8.7561C75.9987 8.64408 76.5252 8.52931 77.2104 8.41295L77.1099 7.82142C76.4149 7.93944 75.8607 8.05905 75.4529 8.1814L75.6253 8.7561ZM77.2148 8.41217C77.9055 8.28426 78.7613 8.17463 79.7843 8.08399L79.7313 7.48633C78.697 7.57798 77.8211 7.6897 77.1055 7.8222L77.2148 8.41217ZM79.784 8.08401C80.8146 7.99384 82.0294 7.94844 83.4297 7.94844V7.34844C82.0175 7.34844 80.7844 7.39418 79.7317 7.4863L79.784 8.08401ZM83.4297 7.94844C84.08 7.94844 84.7236 7.99306 85.3607 8.08226L85.4439 7.48805C84.779 7.39496 84.1075 7.34844 83.4297 7.34844V7.94844ZM85.3666 8.08302C85.9945 8.15837 86.582 8.30244 87.1302 8.51421L87.3464 7.95454C86.7487 7.7236 86.1122 7.56819 85.4381 7.48729L85.3666 8.08302ZM87.1323 8.51502C87.6892 8.72543 88.2027 9.01612 88.6735 9.38781L89.0453 8.91688C88.5265 8.50731 87.9592 8.18603 87.3443 7.95373L87.1323 8.51502ZM88.6765 9.39013C89.1486 9.75334 89.5528 10.2289 89.887 10.8229L90.4099 10.5287C90.0409 9.87269 89.5857 9.3326 89.0423 8.91456L88.6765 9.39013ZM89.8907 10.8293C90.2359 11.4088 90.5126 12.1272 90.7158 12.9906L91.2998 12.8532C91.0863 11.9457 90.7901 11.1667 90.4062 10.5222L89.8907 10.8293ZM90.716 12.9916C90.9175 13.8352 91.0203 14.8394 91.0203 16.0078H91.6203C91.6203 14.8065 91.5148 13.7534 91.2996 12.8522L90.716 12.9916ZM91.0203 16.0078V21.6328H91.6203V16.0078H91.0203ZM91.0203 21.6328C91.0203 21.7807 91.0142 21.9287 91.0018 22.0766L91.5997 22.1265C91.6135 21.962 91.6203 21.7974 91.6203 21.6328H91.0203ZM91.0018 22.0766C90.9917 22.1985 90.9614 22.3146 90.9105 22.4266L91.4567 22.6749C91.536 22.5005 91.5839 22.3172 91.5997 22.1265L91.0018 22.0766ZM90.9051 22.4394C90.8703 22.5262 90.8197 22.5975 90.7517 22.657L91.1468 23.1086C91.2871 22.9858 91.3927 22.8358 91.4621 22.6622L90.9051 22.4394ZM90.7692 22.6428C90.7341 22.6691 90.6622 22.7 90.5195 22.7V23.3C90.7414 23.3 90.956 23.2527 91.1292 23.1228L90.7692 22.6428ZM90.5195 22.7C90.4163 22.7 90.3494 22.6769 90.3033 22.6466C90.2573 22.6165 90.2102 22.5649 90.1703 22.4717L89.6188 22.708C89.696 22.8882 89.8118 23.0418 89.9741 23.1483C90.1363 23.2547 90.3233 23.3 90.5195 23.3V22.7ZM90.1749 22.483C90.088 22.2549 90.0383 21.9491 90.0383 21.5547H89.4383C89.4383 21.9936 89.4928 22.3779 89.6142 22.6966L90.1749 22.483ZM90.0383 21.5547V20.207H89.4383V21.5547H90.0383ZM89.504 20.0196C89.2589 20.3261 88.9352 20.6508 88.5292 20.9934L88.9161 21.4519C89.3434 21.0914 89.6969 20.739 89.9725 20.3944L89.504 20.0196ZM88.5292 20.9934C88.1374 21.3239 87.634 21.6362 87.0132 21.9276L87.2681 22.4708C87.9233 22.1632 88.4745 21.8245 88.9161 21.4519L88.5292 20.9934ZM87.0177 21.9255C86.403 22.2016 85.6618 22.4368 84.7908 22.6289L84.9201 23.2148C85.82 23.0163 86.6022 22.7698 87.2635 22.4729L87.0177 21.9255ZM84.795 22.628C83.9349 22.8051 82.9079 22.8953 81.7109 22.8953V23.4953C82.9358 23.4953 84.0052 23.4032 84.916 23.2157L84.795 22.628ZM81.7109 22.8953C80.593 22.8953 79.5421 22.8118 78.5578 22.6456L78.4579 23.2372C79.4787 23.4096 80.5633 23.4953 81.7109 23.4953V22.8953ZM78.5584 22.6457C77.5913 22.4803 76.754 22.2209 76.0424 21.8714L75.7779 22.4099C76.5507 22.7895 77.4451 23.064 78.4572 23.2371L78.5584 22.6457ZM76.0443 21.8723C75.351 21.5256 74.81 21.0852 74.4119 20.5544L73.9319 20.9144C74.3932 21.5294 75.011 22.0264 75.776 22.409L76.0443 21.8723ZM74.4164 20.5605C74.0408 20.0323 73.8469 19.3921 73.8469 18.625H73.2469C73.2469 19.4985 73.4697 20.2646 73.9274 20.9082L74.4164 20.5605ZM73.8469 18.625C73.8469 17.7147 74.0339 16.9861 74.3872 16.4207L73.8784 16.1027C73.4505 16.7874 73.2469 17.6343 73.2469 18.625H73.8469ZM74.3863 16.4221C74.7608 15.8303 75.2746 15.3572 75.9349 15.0026L75.651 14.474C74.9051 14.8746 74.3122 15.4171 73.8793 16.1013L74.3863 16.4221ZM75.9387 15.0005C76.6069 14.6293 77.3935 14.3655 78.3032 14.2139L78.2046 13.6221C77.2393 13.7829 76.3853 14.066 75.6473 14.476L75.9387 15.0005ZM78.3026 14.214C79.235 14.0607 80.2407 13.9836 81.3203 13.9836V13.3836C80.2124 13.3836 79.1738 13.4627 78.2052 13.6219L78.3026 14.214ZM81.3203 13.9836C82.1327 13.9836 82.9451 14.0158 83.7575 14.0803L83.805 13.4822C82.9768 13.4165 82.1486 13.3836 81.3203 13.3836V13.9836ZM83.7625 14.0807C84.5875 14.1322 85.3658 14.2159 86.0977 14.3315L86.1913 13.7388C85.4389 13.62 84.6417 13.5344 83.8 13.4818L83.7625 14.0807ZM86.1028 14.3322C86.8343 14.4349 87.4984 14.5692 88.0958 14.7345L88.2558 14.1562C87.6292 13.9829 86.9391 13.8437 86.1862 13.7381L86.1028 14.3322ZM88.103 14.7364C88.7123 14.8887 89.2086 15.07 89.5975 15.2767L89.879 14.7468C89.4346 14.5107 88.8892 14.3144 88.2485 14.1543L88.103 14.7364ZM90.0383 15.0117C90.0383 13.6614 89.8602 12.5481 89.486 11.6888L88.9359 11.9284C89.2648 12.6837 89.4383 13.7058 89.4383 15.0117H90.0383ZM89.486 11.6888C89.1179 10.8436 88.6201 10.1737 87.9855 9.69423L87.6238 10.173C88.1611 10.5789 88.6008 11.159 88.9359 11.9284L89.486 11.6888ZM87.9889 9.69679C87.3631 9.21009 86.6412 8.89177 85.8284 8.74024L85.7185 9.33007C86.4422 9.465 87.0744 9.74564 87.6205 10.1704L87.9889 9.69679ZM85.8342 8.74138C85.0578 8.58074 84.2496 8.50078 83.4102 8.50078V9.10078C84.2113 9.10078 84.9787 9.17707 85.7127 9.32893L85.8342 8.74138ZM98.7617 22.6094L99.0449 22.7085L99.0463 22.7042L98.7617 22.6094ZM97.6875 22.9023L97.5075 23.1423L97.5177 23.15L97.5285 23.1567L97.6875 22.9023ZM97.4531 22.6094L97.1744 22.7209L97.179 22.7312L97.4531 22.6094ZM97.4531 1.67188L97.1845 1.53757L97.179 1.55003L97.4531 1.67188ZM97.707 1.35938L97.5406 1.10976L97.5337 1.11438L97.527 1.11937L97.707 1.35938ZM98.5469 1.35938L98.3516 1.58715L98.3591 1.59351L98.3669 1.59938L98.5469 1.35938ZM98.8789 2.12109L98.5798 2.1441L98.5799 2.14601L98.8789 2.12109ZM98.5984 21.6328C98.5984 21.9876 98.5555 22.2795 98.4771 22.5145L99.0463 22.7042C99.1503 22.3924 99.1984 22.0332 99.1984 21.6328H98.5984ZM98.4786 22.5103C98.4526 22.5845 98.4173 22.6234 98.3781 22.6479C98.3348 22.675 98.2611 22.7 98.1367 22.7V23.3C98.3379 23.3 98.5311 23.2599 98.6961 23.1567C98.8652 23.0511 98.9797 22.8947 99.0449 22.7085L98.4786 22.5103ZM98.1367 22.7C97.9674 22.7 97.8826 22.6705 97.8465 22.6479L97.5285 23.1567C97.7007 23.2644 97.9154 23.3 98.1367 23.3V22.7ZM97.8675 22.6623C97.8036 22.6144 97.7582 22.5572 97.7273 22.4875L97.179 22.7312C97.2522 22.8959 97.363 23.034 97.5075 23.1423L97.8675 22.6623ZM97.7317 22.498C97.6919 22.3985 97.6653 22.2848 97.6544 22.1548L97.0565 22.2046C97.0717 22.3871 97.1102 22.5599 97.1746 22.7208L97.7317 22.498ZM97.6544 22.1548C97.6422 22.008 97.6359 21.8472 97.6359 21.6719H97.0359C97.0359 21.8612 97.0427 22.0389 97.0565 22.2046L97.6544 22.1548ZM97.6359 21.6719V2.64844H97.0359V21.6719H97.6359ZM97.6359 2.64844C97.6359 2.45969 97.6422 2.28515 97.6546 2.12457L97.0564 2.07855C97.0427 2.25651 97.0359 2.44656 97.0359 2.64844H97.6359ZM97.6546 2.12457C97.6658 1.97903 97.6928 1.87134 97.7273 1.79372L97.179 1.55003C97.1093 1.70679 97.0712 1.88555 97.0564 2.07855L97.6546 2.12457ZM97.7215 1.80604C97.7682 1.71252 97.8243 1.6464 97.887 1.59938L97.527 1.11937C97.3814 1.2286 97.2682 1.37082 97.1848 1.53771L97.7215 1.80604ZM97.8734 1.60899C97.9257 1.57416 98.0176 1.54219 98.1758 1.54219V0.942187C97.9434 0.942187 97.7227 0.988341 97.5406 1.10976L97.8734 1.60899ZM98.1758 1.54219C98.2824 1.54219 98.3295 1.56819 98.3516 1.58715L98.7421 1.1316C98.5819 0.99431 98.3816 0.942187 98.1758 0.942187V1.54219ZM98.3669 1.59938C98.4236 1.64194 98.4694 1.70008 98.5027 1.78329L99.0598 1.56046C98.9889 1.38325 98.8785 1.23306 98.7269 1.11937L98.3669 1.59938ZM98.5027 1.78329C98.5414 1.88003 98.5686 1.99901 98.5798 2.1441L99.178 2.09808C99.1631 1.90463 99.1253 1.72414 99.0598 1.56046L98.5027 1.78329ZM98.5799 2.14601C98.5922 2.29335 98.5984 2.44777 98.5984 2.60938H99.1984C99.1984 2.43244 99.1916 2.26134 99.1779 2.09618L98.5799 2.14601ZM98.5984 2.60938V21.6328H99.1984V2.60938H98.5984ZM119.68 21.8477L119.892 21.6355L119.886 21.6294L119.879 21.6237L119.68 21.8477ZM119.934 22.4141H120.234V22.3771L120.225 22.3413L119.934 22.4141ZM119.738 22.8438L119.551 22.6095L119.545 22.6144L119.539 22.6195L119.738 22.8438ZM119.25 23V22.7H119.231L119.213 22.7023L119.25 23ZM118.938 22.9414L118.763 23.1855L118.782 23.1992L118.803 23.2097L118.938 22.9414ZM118.645 22.6875L118.857 22.4754L118.851 22.4699L118.845 22.4647L118.645 22.6875ZM109.68 14.6016L109.881 14.3788L109.721 14.2348L109.533 14.3397L109.68 14.6016ZM106.711 16.2617L106.565 15.9999L106.411 16.0858V16.2617H106.711ZM106.457 22.8047L106.64 23.0427L106.651 23.0337L106.457 22.8047ZM105.402 22.8047L105.209 23.0337L105.218 23.0417L105.228 23.0488L105.402 22.8047ZM105.422 1.51562L105.255 1.26588L105.248 1.2715L105.422 1.51562ZM106.711 14.9922H106.411V15.5137L106.862 15.2515L106.711 14.9922ZM118.938 7.88281L118.803 7.61448L118.795 7.61871L118.787 7.62347L118.938 7.88281ZM119.602 8.01953L119.367 8.20694L119.373 8.21374L119.379 8.22022L119.602 8.01953ZM119.445 8.89844L119.599 9.15649L119.608 9.15031L119.445 8.89844ZM110.871 13.9961L110.718 13.7382L110.366 13.9475L110.671 14.22L110.871 13.9961ZM119.468 22.0598C119.535 22.1273 119.559 22.1759 119.567 22.2035L120.144 22.0387C120.1 21.884 120.007 21.7503 119.892 21.6355L119.468 22.0598ZM119.567 22.2035C119.592 22.2911 119.617 22.3855 119.643 22.4868L120.225 22.3413C120.198 22.2343 120.171 22.1334 120.144 22.0387L119.567 22.2035ZM119.634 22.4141C119.634 22.5149 119.603 22.5681 119.551 22.6095L119.926 23.078C120.134 22.9111 120.234 22.6778 120.234 22.4141H119.634ZM119.539 22.6195C119.493 22.6607 119.409 22.7 119.25 22.7V23.3C119.507 23.3 119.75 23.2351 119.938 23.068L119.539 22.6195ZM119.213 22.7023C119.174 22.7072 119.129 22.7017 119.072 22.6731L118.803 23.2097C118.954 23.2853 119.118 23.3188 119.287 23.2977L119.213 22.7023ZM119.112 22.6973C119.038 22.6442 118.953 22.5713 118.857 22.4754L118.432 22.8996C118.545 23.0121 118.655 23.1084 118.763 23.1855L119.112 22.6973ZM118.845 22.4647L109.881 14.3788L109.479 14.8243L118.444 22.9103L118.845 22.4647ZM109.533 14.3397L106.565 15.9999L106.857 16.5236L109.826 14.8634L109.533 14.3397ZM106.411 16.2617V22.1406H107.011V16.2617H106.411ZM106.411 22.1406C106.411 22.3846 106.344 22.5076 106.263 22.5757L106.651 23.0337C106.909 22.8153 107.011 22.4957 107.011 22.1406H106.411ZM106.274 22.5669C106.148 22.664 106.035 22.7 105.93 22.7V23.3C106.189 23.3 106.428 23.2058 106.64 23.0425L106.274 22.5669ZM105.93 22.7C105.84 22.7 105.724 22.6661 105.577 22.5606L105.228 23.0488C105.445 23.2037 105.68 23.3 105.93 23.3V22.7ZM105.596 22.5757C105.516 22.5076 105.448 22.3846 105.448 22.1406H104.848C104.848 22.4957 104.95 22.8153 105.209 23.0337L105.596 22.5757ZM105.448 22.1406V2.10156H104.848V22.1406H105.448ZM105.448 2.10156C105.448 1.92 105.506 1.82392 105.596 1.75975L105.248 1.2715C104.973 1.46775 104.848 1.76229 104.848 2.10156H105.448ZM105.588 1.76524C105.753 1.65561 105.878 1.62031 105.969 1.62031V1.02031C105.721 1.02031 105.482 1.11523 105.255 1.26601L105.588 1.76524ZM105.969 1.62031C106.073 1.62031 106.176 1.65527 106.285 1.74609L106.669 1.28516C106.465 1.11556 106.229 1.02031 105.969 1.02031V1.62031ZM106.285 1.74609C106.354 1.80404 106.411 1.90323 106.411 2.10156H107.011C107.011 1.77907 106.912 1.48762 106.669 1.28516L106.285 1.74609ZM106.411 2.10156V14.9922H107.011V2.10156H106.411ZM106.862 15.2515L119.088 8.14216L118.787 7.62347L106.56 14.7328L106.862 15.2515ZM119.072 8.15114C119.106 8.13382 119.145 8.12422 119.191 8.12422V7.52422C119.056 7.52422 118.925 7.55368 118.803 7.61448L119.072 8.15114ZM119.191 8.12422C119.271 8.12422 119.321 8.14914 119.367 8.20694L119.836 7.83212C119.674 7.6295 119.45 7.52422 119.191 7.52422V8.12422ZM119.379 8.22022C119.458 8.30821 119.477 8.37623 119.477 8.42969H120.077C120.077 8.19669 119.98 7.99127 119.825 7.81884L119.379 8.22022ZM119.477 8.42969C119.477 8.44939 119.468 8.52632 119.282 8.64657L119.608 9.15031C119.865 8.9841 120.077 8.74853 120.077 8.42969H119.477ZM119.292 8.64057L110.718 13.7382L111.024 14.254L119.599 9.15631L119.292 8.64057ZM110.671 14.22L119.48 22.0716L119.879 21.6237L111.071 13.7721L110.671 14.22Z" fill="black"/>
</svg>
